<svg width="272" height="80" viewBox="0 0 272 80" fill="none" xmlns="http://www.w3.org/2000/svg">
<path d="M98.87 46.64H101.95V36.87C101.95 36.5767 101.96 36.28 101.98 35.98L99.42 38.17C99.3533 38.2233 99.2867 38.2633 99.22 38.29C99.1533 38.31 99.09 38.32 99.03 38.32C98.93 38.32 98.84 38.3 98.76 38.26C98.68 38.2133 98.62 38.16 98.58 38.1L98.02 37.33L102.28 33.64H103.73V46.64H106.55V48H98.87V46.64ZM115.612 33.51C116.218 33.51 116.785 33.6 117.312 33.78C117.838 33.96 118.292 34.2233 118.672 34.57C119.058 34.91 119.362 35.3267 119.582 35.82C119.802 36.3133 119.912 36.8733 119.912 37.5C119.912 38.0333 119.832 38.5267 119.672 38.98C119.512 39.4333 119.295 39.87 119.022 40.29C118.748 40.7033 118.432 41.1067 118.072 41.5C117.718 41.8867 117.342 42.2833 116.942 42.69L113.172 46.55C113.438 46.4767 113.708 46.42 113.982 46.38C114.255 46.3333 114.518 46.31 114.772 46.31H119.572C119.765 46.31 119.918 46.3667 120.032 46.48C120.145 46.5933 120.202 46.74 120.202 46.92V48H110.642V47.39C110.642 47.2633 110.665 47.1333 110.712 47C110.765 46.8667 110.848 46.7433 110.962 46.63L115.552 42.02C115.932 41.6333 116.278 41.2633 116.592 40.91C116.905 40.55 117.172 40.19 117.392 39.83C117.618 39.47 117.792 39.1067 117.912 38.74C118.032 38.3667 118.092 37.97 118.092 37.55C118.092 37.13 118.025 36.7633 117.892 36.45C117.758 36.13 117.575 35.8667 117.342 35.66C117.108 35.4533 116.835 35.3 116.522 35.2C116.208 35.0933 115.872 35.04 115.512 35.04C115.152 35.04 114.818 35.0933 114.512 35.2C114.205 35.3067 113.932 35.4567 113.692 35.65C113.458 35.8367 113.258 36.06 113.092 36.32C112.932 36.58 112.818 36.8667 112.752 37.18C112.698 37.3733 112.618 37.5133 112.512 37.6C112.405 37.6867 112.265 37.73 112.092 37.73C112.058 37.73 112.022 37.73 111.982 37.73C111.948 37.7233 111.908 37.7167 111.862 37.71L110.932 37.55C111.025 36.8967 111.205 36.32 111.472 35.82C111.738 35.3133 112.075 34.89 112.482 34.55C112.895 34.21 113.365 33.9533 113.892 33.78C114.425 33.6 114.998 33.51 115.612 33.51ZM137.86 42.82C137.954 42.98 138.034 43.15 138.1 43.33C138.174 43.5033 138.244 43.68 138.31 43.86C138.377 43.6733 138.447 43.4967 138.52 43.33C138.594 43.1567 138.677 42.9833 138.77 42.81L143.62 34C143.707 33.8467 143.797 33.7533 143.89 33.72C143.984 33.6867 144.117 33.67 144.29 33.67H145.72V48H144.02V37.47C144.02 37.33 144.024 37.18 144.03 37.02C144.037 36.86 144.047 36.6967 144.06 36.53L139.15 45.49C138.984 45.79 138.75 45.94 138.45 45.94H138.17C137.87 45.94 137.637 45.79 137.47 45.49L132.45 36.5C132.47 36.6733 132.484 36.8433 132.49 37.01C132.504 37.1767 132.51 37.33 132.51 37.47V48H130.81V33.67H132.24C132.414 33.67 132.547 33.6867 132.64 33.72C132.734 33.7533 132.824 33.8467 132.91 34L137.86 42.82ZM164.519 40.84C164.519 41.9133 164.349 42.9 164.009 43.8C163.669 44.6933 163.189 45.4633 162.569 46.11C161.949 46.7567 161.202 47.26 160.329 47.62C159.462 47.9733 158.502 48.15 157.449 48.15C156.395 48.15 155.435 47.9733 154.569 47.62C153.702 47.26 152.959 46.7567 152.339 46.11C151.719 45.4633 151.239 44.6933 150.899 43.8C150.559 42.9 150.389 41.9133 150.389 40.84C150.389 39.7667 150.559 38.7833 150.899 37.89C151.239 36.99 151.719 36.2167 152.339 35.57C152.959 34.9167 153.702 34.41 154.569 34.05C155.435 33.69 156.395 33.51 157.449 33.51C158.502 33.51 159.462 33.69 160.329 34.05C161.202 34.41 161.949 34.9167 162.569 35.57C163.189 36.2167 163.669 36.99 164.009 37.89C164.349 38.7833 164.519 39.7667 164.519 40.84ZM162.529 40.84C162.529 39.96 162.409 39.17 162.169 38.47C161.929 37.77 161.589 37.18 161.149 36.7C160.709 36.2133 160.175 35.84 159.549 35.58C158.922 35.32 158.222 35.19 157.449 35.19C156.682 35.19 155.985 35.32 155.359 35.58C154.732 35.84 154.195 36.2133 153.749 36.7C153.309 37.18 152.969 37.77 152.729 38.47C152.489 39.17 152.369 39.96 152.369 40.84C152.369 41.72 152.489 42.51 152.729 43.21C152.969 43.9033 153.309 44.4933 153.749 44.98C154.195 45.46 154.732 45.83 155.359 46.09C155.985 46.3433 156.682 46.47 157.449 46.47C158.222 46.47 158.922 46.3433 159.549 46.09C160.175 45.83 160.709 45.46 161.149 44.98C161.589 44.4933 161.929 43.9033 162.169 43.21C162.409 42.51 162.529 41.72 162.529 40.84ZM160.879 30.18L157.939 32.34C157.825 32.42 157.725 32.4733 157.639 32.5C157.552 32.5267 157.439 32.54 157.299 32.54H155.919L158.029 30.51C158.095 30.4433 158.155 30.39 158.209 30.35C158.269 30.31 158.329 30.2767 158.389 30.25C158.449 30.2233 158.515 30.2067 158.589 30.2C158.662 30.1867 158.755 30.18 158.869 30.18H160.879ZM181.586 40.84C181.586 41.9133 181.416 42.89 181.076 43.77C180.736 44.65 180.256 45.4033 179.636 46.03C179.016 46.6567 178.272 47.1433 177.406 47.49C176.539 47.83 175.579 48 174.526 48H169.166V33.67H174.526C175.579 33.67 176.539 33.8433 177.406 34.19C178.272 34.53 179.016 35.0167 179.636 35.65C180.256 36.2767 180.736 37.03 181.076 37.91C181.416 38.79 181.586 39.7667 181.586 40.84ZM179.596 40.84C179.596 39.96 179.476 39.1733 179.236 38.48C178.996 37.7867 178.656 37.2 178.216 36.72C177.776 36.24 177.242 35.8733 176.616 35.62C175.989 35.3667 175.292 35.24 174.526 35.24H171.116V46.43H174.526C175.292 46.43 175.989 46.3033 176.616 46.05C177.242 45.7967 177.776 45.4333 178.216 44.96C178.656 44.48 178.996 43.8933 179.236 43.2C179.476 42.5067 179.596 41.72 179.596 40.84ZM191.794 46.46C192.388 46.46 192.918 46.36 193.384 46.16C193.851 45.96 194.244 45.68 194.564 45.32C194.891 44.96 195.138 44.53 195.304 44.03C195.478 43.53 195.564 42.98 195.564 42.38V33.67H197.494V42.38C197.494 43.2067 197.361 43.9733 197.094 44.68C196.834 45.3867 196.458 46 195.964 46.52C195.478 47.0333 194.881 47.4367 194.174 47.73C193.468 48.0233 192.674 48.17 191.794 48.17C190.914 48.17 190.121 48.0233 189.414 47.73C188.708 47.4367 188.108 47.0333 187.614 46.52C187.121 46 186.741 45.3867 186.474 44.68C186.214 43.9733 186.084 43.2067 186.084 42.38V33.67H188.014V42.37C188.014 42.97 188.098 43.52 188.264 44.02C188.438 44.52 188.684 44.95 189.004 45.31C189.331 45.67 189.728 45.9533 190.194 46.16C190.668 46.36 191.201 46.46 191.794 46.46ZM204.774 46.37H210.974V48H202.834V33.67H204.774V46.37ZM227.616 40.84C227.616 41.9133 227.446 42.9 227.106 43.8C226.766 44.6933 226.286 45.4633 225.666 46.11C225.046 46.7567 224.3 47.26 223.426 47.62C222.56 47.9733 221.6 48.15 220.546 48.15C219.493 48.15 218.533 47.9733 217.666 47.62C216.8 47.26 216.056 46.7567 215.436 46.11C214.816 45.4633 214.336 44.6933 213.996 43.8C213.656 42.9 213.486 41.9133 213.486 40.84C213.486 39.7667 213.656 38.7833 213.996 37.89C214.336 36.99 214.816 36.2167 215.436 35.57C216.056 34.9167 216.8 34.41 217.666 34.05C218.533 33.69 219.493 33.51 220.546 33.51C221.6 33.51 222.56 33.69 223.426 34.05C224.3 34.41 225.046 34.9167 225.666 35.57C226.286 36.2167 226.766 36.99 227.106 37.89C227.446 38.7833 227.616 39.7667 227.616 40.84ZM225.626 40.84C225.626 39.96 225.506 39.17 225.266 38.47C225.026 37.77 224.686 37.18 224.246 36.7C223.806 36.2133 223.273 35.84 222.646 35.58C222.02 35.32 221.32 35.19 220.546 35.19C219.78 35.19 219.083 35.32 218.456 35.58C217.83 35.84 217.293 36.2133 216.846 36.7C216.406 37.18 216.066 37.77 215.826 38.47C215.586 39.17 215.466 39.96 215.466 40.84C215.466 41.72 215.586 42.51 215.826 43.21C216.066 43.9033 216.406 44.4933 216.846 44.98C217.293 45.46 217.83 45.83 218.456 46.09C219.083 46.3433 219.78 46.47 220.546 46.47C221.32 46.47 222.02 46.3433 222.646 46.09C223.273 45.83 223.806 45.46 224.246 44.98C224.686 44.4933 225.026 43.9033 225.266 43.21C225.506 42.51 225.626 41.72 225.626 40.84ZM239.603 35.91C239.543 36.01 239.48 36.0867 239.413 36.14C239.347 36.1867 239.26 36.21 239.153 36.21C239.04 36.21 238.907 36.1533 238.753 36.04C238.607 35.9267 238.417 35.8033 238.183 35.67C237.957 35.53 237.68 35.4033 237.353 35.29C237.033 35.1767 236.643 35.12 236.183 35.12C235.75 35.12 235.367 35.18 235.033 35.3C234.7 35.4133 234.42 35.57 234.193 35.77C233.973 35.97 233.807 36.2067 233.693 36.48C233.58 36.7467 233.523 37.0367 233.523 37.35C233.523 37.75 233.62 38.0833 233.813 38.35C234.013 38.61 234.273 38.8333 234.593 39.02C234.92 39.2067 235.287 39.37 235.693 39.51C236.107 39.6433 236.527 39.7833 236.953 39.93C237.387 40.0767 237.807 40.2433 238.213 40.43C238.627 40.61 238.993 40.84 239.313 41.12C239.64 41.4 239.9 41.7433 240.093 42.15C240.293 42.5567 240.393 43.0567 240.393 43.65C240.393 44.2767 240.287 44.8667 240.073 45.42C239.86 45.9667 239.547 46.4433 239.133 46.85C238.727 47.2567 238.223 47.5767 237.623 47.81C237.03 48.0433 236.353 48.16 235.593 48.16C234.667 48.16 233.82 47.9933 233.053 47.66C232.293 47.32 231.643 46.8633 231.103 46.29L231.663 45.37C231.717 45.2967 231.78 45.2367 231.853 45.19C231.933 45.1367 232.02 45.11 232.113 45.11C232.253 45.11 232.413 45.1867 232.593 45.34C232.773 45.4867 232.997 45.65 233.263 45.83C233.537 46.01 233.863 46.1767 234.243 46.33C234.63 46.4767 235.1 46.55 235.653 46.55C236.113 46.55 236.523 46.4867 236.883 46.36C237.243 46.2333 237.547 46.0567 237.793 45.83C238.047 45.5967 238.24 45.32 238.373 45C238.507 44.68 238.573 44.3233 238.573 43.93C238.573 43.4967 238.473 43.1433 238.273 42.87C238.08 42.59 237.823 42.3567 237.503 42.17C237.183 41.9833 236.817 41.8267 236.403 41.7C235.997 41.5667 235.577 41.4333 235.143 41.3C234.717 41.16 234.297 41 233.883 40.82C233.477 40.64 233.113 40.4067 232.793 40.12C232.473 39.8333 232.213 39.4767 232.013 39.05C231.82 38.6167 231.723 38.0833 231.723 37.45C231.723 36.9433 231.82 36.4533 232.013 35.98C232.213 35.5067 232.5 35.0867 232.873 34.72C233.247 34.3533 233.707 34.06 234.253 33.84C234.807 33.62 235.44 33.51 236.153 33.51C236.953 33.51 237.683 33.6367 238.343 33.89C239.003 34.1433 239.58 34.51 240.073 34.99L239.603 35.91Z" fill="white"/>
<circle cx="40" cy="40" r="38" stroke="#D8D7CE" stroke-width="4"/>
<g clip-path="url(#clip0_1_751)">
<path d="M54.3667 27.0334C54.1731 26.8768 53.9468 26.7655 53.7045 26.7078C53.4622 26.6502 53.2101 26.6475 52.9667 26.7001L40 29.6167L27.0333 26.6667C26.7861 26.6109 26.5293 26.6122 26.2826 26.6705C26.0359 26.7289 25.8057 26.8428 25.6096 27.0035C25.4136 27.1642 25.2567 27.3675 25.1511 27.598C25.0455 27.8284 24.9938 28.08 25 28.3334V48.6667C24.9906 49.052 25.115 49.4286 25.352 49.7325C25.589 50.0364 25.924 50.2487 26.3 50.3334L39.6333 53.3334H40.3667L53.7 50.3334C54.076 50.2487 54.411 50.0364 54.648 49.7325C54.885 49.4286 55.0094 49.052 55 48.6667V28.3334C54.9989 28.0831 54.9413 27.8362 54.8317 27.6111C54.722 27.3861 54.5631 27.1886 54.3667 27.0334ZM28.3333 30.4167L38.3333 32.6667V49.5834L28.3333 47.3334V30.4167ZM51.6667 47.3334L41.6667 49.5834V32.6667L51.6667 30.4167V47.3334Z" fill="#D8D7CE"/>
</g>
<defs>
<clipPath id="clip0_1_751">
<rect width="40" height="40" fill="white" transform="translate(20 20)"/>
</clipPath>
</defs>
</svg>
