<svg width="183" height="151" viewBox="0 0 183 151" fill="none" xmlns="http://www.w3.org/2000/svg">
<path d="M52.2516 90.3075V91.8875H45.3716V96.6475H50.9416V98.1675H45.3716V103.058H52.2516V104.638H43.4216V90.3075H52.2516ZM56.3027 97.8875H61.2427V99.3975H56.3027V97.8875ZM65.9763 104.638V90.3075H70.5463C71.4263 90.3075 72.183 90.3942 72.8163 90.5675C73.4563 90.7408 73.9797 90.9875 74.3863 91.3075C74.7997 91.6275 75.103 92.0208 75.2963 92.4875C75.4963 92.9475 75.5963 93.4675 75.5963 94.0475C75.5963 94.4008 75.5397 94.7408 75.4263 95.0675C75.3197 95.3942 75.153 95.6975 74.9263 95.9775C74.7063 96.2575 74.4263 96.5075 74.0863 96.7275C73.753 96.9475 73.3597 97.1275 72.9063 97.2675C73.953 97.4742 74.743 97.8508 75.2763 98.3975C75.8097 98.9442 76.0763 99.6642 76.0763 100.558C76.0763 101.164 75.963 101.718 75.7363 102.218C75.5163 102.718 75.1897 103.148 74.7563 103.508C74.3297 103.868 73.803 104.148 73.1763 104.348C72.5563 104.541 71.8463 104.638 71.0463 104.638H65.9763ZM67.9163 98.1075V103.098H71.0163C71.5697 103.098 72.043 103.034 72.4363 102.908C72.8363 102.781 73.163 102.604 73.4163 102.378C73.6763 102.144 73.8663 101.871 73.9863 101.558C74.1063 101.238 74.1663 100.888 74.1663 100.508C74.1663 99.7675 73.903 99.1842 73.3763 98.7575C72.8563 98.3242 72.0663 98.1075 71.0063 98.1075H67.9163ZM67.9163 96.7275H70.4763C71.023 96.7275 71.4963 96.6675 71.8963 96.5475C72.2963 96.4275 72.6263 96.2608 72.8863 96.0475C73.153 95.8342 73.3497 95.5775 73.4763 95.2775C73.603 94.9708 73.6663 94.6375 73.6663 94.2775C73.6663 93.4375 73.413 92.8208 72.9063 92.4275C72.3997 92.0342 71.613 91.8375 70.5463 91.8375H67.9163V96.7275ZM94.2355 97.4775C94.2355 98.5508 94.0655 99.5375 93.7255 100.438C93.3855 101.331 92.9055 102.101 92.2855 102.748C91.6655 103.394 90.9189 103.898 90.0455 104.258C89.1789 104.611 88.2189 104.788 87.1655 104.788C86.1122 104.788 85.1522 104.611 84.2855 104.258C83.4189 103.898 82.6755 103.394 82.0555 102.748C81.4355 102.101 80.9555 101.331 80.6155 100.438C80.2755 99.5375 80.1055 98.5508 80.1055 97.4775C80.1055 96.4042 80.2755 95.4208 80.6155 94.5275C80.9555 93.6275 81.4355 92.8542 82.0555 92.2075C82.6755 91.5542 83.4189 91.0475 84.2855 90.6875C85.1522 90.3275 86.1122 90.1475 87.1655 90.1475C88.2189 90.1475 89.1789 90.3275 90.0455 90.6875C90.9189 91.0475 91.6655 91.5542 92.2855 92.2075C92.9055 92.8542 93.3855 93.6275 93.7255 94.5275C94.0655 95.4208 94.2355 96.4042 94.2355 97.4775ZM92.2455 97.4775C92.2455 96.5975 92.1255 95.8075 91.8855 95.1075C91.6455 94.4075 91.3055 93.8175 90.8655 93.3375C90.4255 92.8508 89.8922 92.4775 89.2655 92.2175C88.6389 91.9575 87.9389 91.8275 87.1655 91.8275C86.3989 91.8275 85.7022 91.9575 85.0755 92.2175C84.4489 92.4775 83.9122 92.8508 83.4655 93.3375C83.0255 93.8175 82.6855 94.4075 82.4455 95.1075C82.2055 95.8075 82.0855 96.5975 82.0855 97.4775C82.0855 98.3575 82.2055 99.1475 82.4455 99.8475C82.6855 100.541 83.0255 101.131 83.4655 101.618C83.9122 102.098 84.4489 102.468 85.0755 102.728C85.7022 102.981 86.3989 103.108 87.1655 103.108C87.9389 103.108 88.6389 102.981 89.2655 102.728C89.8922 102.468 90.4255 102.098 90.8655 101.618C91.3055 101.131 91.6455 100.541 91.8855 99.8475C92.1255 99.1475 92.2455 98.3575 92.2455 97.4775ZM112.193 97.4775C112.193 98.5508 112.023 99.5375 111.683 100.438C111.343 101.331 110.863 102.101 110.243 102.748C109.623 103.394 108.876 103.898 108.003 104.258C107.136 104.611 106.176 104.788 105.123 104.788C104.069 104.788 103.109 104.611 102.243 104.258C101.376 103.898 100.633 103.394 100.013 102.748C99.3926 102.101 98.9126 101.331 98.5726 100.438C98.2326 99.5375 98.0626 98.5508 98.0626 97.4775C98.0626 96.4042 98.2326 95.4208 98.5726 94.5275C98.9126 93.6275 99.3926 92.8542 100.013 92.2075C100.633 91.5542 101.376 91.0475 102.243 90.6875C103.109 90.3275 104.069 90.1475 105.123 90.1475C106.176 90.1475 107.136 90.3275 108.003 90.6875C108.876 91.0475 109.623 91.5542 110.243 92.2075C110.863 92.8542 111.343 93.6275 111.683 94.5275C112.023 95.4208 112.193 96.4042 112.193 97.4775ZM110.203 97.4775C110.203 96.5975 110.083 95.8075 109.843 95.1075C109.603 94.4075 109.263 93.8175 108.823 93.3375C108.383 92.8508 107.849 92.4775 107.223 92.2175C106.596 91.9575 105.896 91.8275 105.123 91.8275C104.356 91.8275 103.659 91.9575 103.033 92.2175C102.406 92.4775 101.869 92.8508 101.423 93.3375C100.983 93.8175 100.643 94.4075 100.403 95.1075C100.163 95.8075 100.043 96.5975 100.043 97.4775C100.043 98.3575 100.163 99.1475 100.403 99.8475C100.643 100.541 100.983 101.131 101.423 101.618C101.869 102.098 102.406 102.468 103.033 102.728C103.659 102.981 104.356 103.108 105.123 103.108C105.896 103.108 106.596 102.981 107.223 102.728C107.849 102.468 108.383 102.098 108.823 101.618C109.263 101.131 109.603 100.541 109.843 99.8475C110.083 99.1475 110.203 98.3575 110.203 97.4775ZM118.97 96.5875H119.7C119.953 96.5875 120.153 96.5575 120.3 96.4975C120.453 96.4308 120.596 96.3208 120.73 96.1675L125.5 90.7675C125.646 90.6008 125.786 90.4842 125.92 90.4175C126.06 90.3442 126.236 90.3075 126.45 90.3075H128.1L122.64 96.4775C122.5 96.6308 122.366 96.7608 122.24 96.8675C122.12 96.9742 121.99 97.0608 121.85 97.1275C122.036 97.1875 122.2 97.2775 122.34 97.3975C122.48 97.5175 122.626 97.6675 122.78 97.8475L128.48 104.638H126.8C126.673 104.638 126.566 104.628 126.48 104.608C126.393 104.588 126.316 104.561 126.25 104.528C126.19 104.494 126.133 104.451 126.08 104.398C126.026 104.344 125.973 104.288 125.92 104.228L120.97 98.5375C120.896 98.4575 120.826 98.3908 120.76 98.3375C120.7 98.2775 120.626 98.2275 120.54 98.1875C120.46 98.1475 120.363 98.1208 120.25 98.1075C120.143 98.0875 120.01 98.0775 119.85 98.0775H118.97V104.638H117.04V90.3075H118.97V96.5875ZM139.793 92.5475C139.733 92.6475 139.67 92.7242 139.603 92.7775C139.536 92.8242 139.45 92.8475 139.343 92.8475C139.23 92.8475 139.096 92.7908 138.943 92.6775C138.796 92.5642 138.606 92.4408 138.373 92.3075C138.146 92.1675 137.87 92.0408 137.543 91.9275C137.223 91.8142 136.833 91.7575 136.373 91.7575C135.94 91.7575 135.556 91.8175 135.223 91.9375C134.89 92.0508 134.61 92.2075 134.383 92.4075C134.163 92.6075 133.996 92.8442 133.883 93.1175C133.77 93.3842 133.713 93.6742 133.713 93.9875C133.713 94.3875 133.81 94.7208 134.003 94.9875C134.203 95.2475 134.463 95.4708 134.783 95.6575C135.11 95.8442 135.476 96.0075 135.883 96.1475C136.296 96.2808 136.716 96.4208 137.143 96.5675C137.576 96.7142 137.996 96.8808 138.403 97.0675C138.816 97.2475 139.183 97.4775 139.503 97.7575C139.83 98.0375 140.09 98.3808 140.283 98.7875C140.483 99.1942 140.583 99.6942 140.583 100.288C140.583 100.914 140.476 101.504 140.263 102.058C140.05 102.604 139.736 103.081 139.323 103.488C138.916 103.894 138.413 104.214 137.813 104.448C137.22 104.681 136.543 104.798 135.783 104.798C134.856 104.798 134.01 104.631 133.243 104.298C132.483 103.958 131.833 103.501 131.293 102.928L131.853 102.008C131.906 101.934 131.97 101.874 132.043 101.828C132.123 101.774 132.21 101.748 132.303 101.748C132.443 101.748 132.603 101.824 132.783 101.978C132.963 102.124 133.186 102.288 133.453 102.468C133.726 102.648 134.053 102.814 134.433 102.968C134.82 103.114 135.29 103.188 135.843 103.188C136.303 103.188 136.713 103.124 137.073 102.998C137.433 102.871 137.736 102.694 137.983 102.468C138.236 102.234 138.43 101.958 138.563 101.638C138.696 101.318 138.763 100.961 138.763 100.568C138.763 100.134 138.663 99.7808 138.463 99.5075C138.27 99.2275 138.013 98.9942 137.693 98.8075C137.373 98.6208 137.006 98.4642 136.593 98.3375C136.186 98.2042 135.766 98.0708 135.333 97.9375C134.906 97.7975 134.486 97.6375 134.073 97.4575C133.666 97.2775 133.303 97.0442 132.983 96.7575C132.663 96.4708 132.403 96.1142 132.203 95.6875C132.01 95.2542 131.913 94.7208 131.913 94.0875C131.913 93.5808 132.01 93.0908 132.203 92.6175C132.403 92.1442 132.69 91.7242 133.063 91.3575C133.436 90.9908 133.896 90.6975 134.443 90.4775C134.996 90.2575 135.63 90.1475 136.343 90.1475C137.143 90.1475 137.873 90.2742 138.533 90.5275C139.193 90.7808 139.77 91.1475 140.263 91.6275L139.793 92.5475Z" fill="white"/>
<g clip-path="url(#clip0_1_804)">
<path d="M112.85 9.14999H76.2501C73.8234 9.14999 71.496 10.114 69.7801 11.83C68.0641 13.5459 67.1001 15.8733 67.1001 18.3V54.9C67.1001 57.3267 68.0641 59.6541 69.7801 61.37C71.496 63.086 73.8234 64.05 76.2501 64.05H112.85C113.659 64.05 114.435 63.7287 115.007 63.1567C115.579 62.5847 115.9 61.8089 115.9 61V12.2C115.9 11.3911 115.579 10.6153 115.007 10.0433C114.435 9.47133 113.659 9.14999 112.85 9.14999V9.14999ZM76.2501 15.25H109.8V45.75H76.2501C75.2096 45.7582 74.1782 45.9439 73.2001 46.299V18.3C73.2001 17.4911 73.5214 16.7153 74.0934 16.1433C74.6654 15.5713 75.4412 15.25 76.2501 15.25V15.25ZM76.2501 57.95C75.4412 57.95 74.6654 57.6287 74.0934 57.0567C73.5214 56.4847 73.2001 55.7089 73.2001 54.9C73.2001 54.0911 73.5214 53.3153 74.0934 52.7433C74.6654 52.1713 75.4412 51.85 76.2501 51.85H109.8V57.95H76.2501Z" fill="#D8D7CE"/>
</g>
<defs>
<clipPath id="clip0_1_804">
<rect width="73.2" height="73.2" fill="white" transform="translate(54.9)"/>
</clipPath>
</defs>
</svg>
