<svg width="88" height="72" viewBox="0 0 88 72" fill="none" xmlns="http://www.w3.org/2000/svg">
<path d="M7.3933 67.89H9.1513V62.832C9.1513 62.636 9.1573 62.43 9.1693 62.214L7.9213 63.258C7.8693 63.302 7.8153 63.332 7.7593 63.348C7.7073 63.364 7.6553 63.372 7.6033 63.372C7.5233 63.372 7.4493 63.356 7.3813 63.324C7.3173 63.288 7.2693 63.248 7.2373 63.204L6.7693 62.562L9.4153 60.312H10.6333V67.89H12.1933V69H7.3933V67.89ZM16.3522 60.228C16.7522 60.228 17.1182 60.288 17.4502 60.408C17.7822 60.524 18.0662 60.69 18.3022 60.906C18.5382 61.122 18.7222 61.382 18.8542 61.686C18.9862 61.99 19.0522 62.328 19.0522 62.7C19.0522 63.02 19.0042 63.316 18.9082 63.588C18.8162 63.86 18.6902 64.12 18.5302 64.368C18.3742 64.616 18.1902 64.856 17.9782 65.088C17.7662 65.32 17.5442 65.556 17.3122 65.796L15.3562 67.794C15.5482 67.738 15.7362 67.696 15.9202 67.668C16.1042 67.636 16.2802 67.62 16.4482 67.62H18.6742C18.8342 67.62 18.9602 67.666 19.0522 67.758C19.1482 67.846 19.1962 67.964 19.1962 68.112V69H13.2442V68.508C13.2442 68.408 13.2642 68.304 13.3042 68.196C13.3482 68.088 13.4162 67.988 13.5082 67.896L16.1422 65.256C16.3622 65.032 16.5582 64.818 16.7302 64.614C16.9062 64.41 17.0522 64.208 17.1682 64.008C17.2882 63.808 17.3782 63.606 17.4382 63.402C17.5022 63.194 17.5342 62.976 17.5342 62.748C17.5342 62.54 17.5042 62.358 17.4442 62.202C17.3842 62.042 17.2982 61.908 17.1862 61.8C17.0742 61.692 16.9402 61.612 16.7842 61.56C16.6322 61.504 16.4602 61.476 16.2682 61.476C15.9122 61.476 15.6182 61.566 15.3862 61.746C15.1582 61.926 14.9982 62.168 14.9062 62.472C14.8622 62.624 14.7962 62.734 14.7082 62.802C14.6202 62.866 14.5082 62.898 14.3722 62.898C14.3122 62.898 14.2462 62.892 14.1742 62.88L13.3942 62.742C13.4542 62.326 13.5702 61.962 13.7422 61.65C13.9142 61.334 14.1282 61.072 14.3842 60.864C14.6442 60.652 14.9402 60.494 15.2722 60.39C15.6082 60.282 15.9682 60.228 16.3522 60.228ZM27.2535 65.4C27.3215 65.528 27.3835 65.662 27.4395 65.802C27.4995 65.938 27.5575 66.076 27.6135 66.216C27.6695 66.072 27.7275 65.93 27.7875 65.79C27.8475 65.65 27.9115 65.516 27.9795 65.388L30.5475 60.582C30.5795 60.522 30.6115 60.474 30.6435 60.438C30.6795 60.402 30.7175 60.376 30.7575 60.36C30.8015 60.344 30.8495 60.334 30.9015 60.33C30.9535 60.326 31.0155 60.324 31.0875 60.324H32.3055V69H30.8835V63.396C30.8835 63.292 30.8855 63.178 30.8895 63.054C30.8975 62.93 30.9075 62.804 30.9195 62.676L28.2975 67.596C28.2375 67.708 28.1595 67.796 28.0635 67.86C27.9675 67.92 27.8555 67.95 27.7275 67.95H27.5055C27.3775 67.95 27.2655 67.92 27.1695 67.86C27.0735 67.796 26.9955 67.708 26.9355 67.596L24.2775 62.658C24.2935 62.79 24.3035 62.92 24.3075 63.048C24.3155 63.172 24.3195 63.288 24.3195 63.396V69H22.8975V60.324H24.1155C24.1875 60.324 24.2495 60.326 24.3015 60.33C24.3535 60.334 24.3995 60.344 24.4395 60.36C24.4835 60.376 24.5235 60.402 24.5595 60.438C24.5955 60.474 24.6295 60.522 24.6615 60.582L27.2535 65.4ZM42.3757 64.662C42.3757 65.298 42.2697 65.888 42.0577 66.432C41.8457 66.972 41.5477 67.44 41.1637 67.836C40.7797 68.232 40.3177 68.542 39.7777 68.766C39.2377 68.986 38.6397 69.096 37.9837 69.096C37.3277 69.096 36.7277 68.986 36.1837 68.766C35.6437 68.542 35.1797 68.232 34.7917 67.836C34.4077 67.44 34.1097 66.972 33.8977 66.432C33.6857 65.888 33.5797 65.298 33.5797 64.662C33.5797 64.026 33.6857 63.438 33.8977 62.898C34.1097 62.354 34.4077 61.884 34.7917 61.488C35.1797 61.092 35.6437 60.784 36.1837 60.564C36.7277 60.34 37.3277 60.228 37.9837 60.228C38.6397 60.228 39.2377 60.34 39.7777 60.564C40.3177 60.788 40.7797 61.098 41.1637 61.494C41.5477 61.886 41.8457 62.354 42.0577 62.898C42.2697 63.438 42.3757 64.026 42.3757 64.662ZM40.7197 64.662C40.7197 64.186 40.6557 63.76 40.5277 63.384C40.4037 63.004 40.2237 62.682 39.9877 62.418C39.7517 62.154 39.4637 61.952 39.1237 61.812C38.7877 61.672 38.4077 61.602 37.9837 61.602C37.5597 61.602 37.1777 61.672 36.8377 61.812C36.4977 61.952 36.2077 62.154 35.9677 62.418C35.7317 62.682 35.5497 63.004 35.4217 63.384C35.2937 63.76 35.2297 64.186 35.2297 64.662C35.2297 65.138 35.2937 65.566 35.4217 65.946C35.5497 66.322 35.7317 66.642 35.9677 66.906C36.2077 67.166 36.4977 67.366 36.8377 67.506C37.1777 67.646 37.5597 67.716 37.9837 67.716C38.4077 67.716 38.7877 67.646 39.1237 67.506C39.4637 67.366 39.7517 67.166 39.9877 66.906C40.2237 66.642 40.4037 66.322 40.5277 65.946C40.6557 65.566 40.7197 65.138 40.7197 64.662ZM40.2997 58.254L38.5237 59.55C38.4797 59.582 38.4377 59.608 38.3977 59.628C38.3617 59.648 38.3237 59.664 38.2837 59.676C38.2477 59.688 38.2077 59.696 38.1637 59.7C38.1237 59.704 38.0757 59.706 38.0197 59.706H36.8557L38.0317 58.494C38.0797 58.446 38.1237 58.406 38.1637 58.374C38.2077 58.342 38.2517 58.318 38.2957 58.302C38.3397 58.282 38.3897 58.27 38.4457 58.266C38.5017 58.258 38.5697 58.254 38.6497 58.254H40.2997ZM51.3554 64.662C51.3554 65.298 51.2494 65.882 51.0374 66.414C50.8254 66.946 50.5274 67.404 50.1434 67.788C49.7594 68.172 49.2974 68.47 48.7574 68.682C48.2174 68.894 47.6194 69 46.9634 69H43.6514V60.324H46.9634C47.6194 60.324 48.2174 60.432 48.7574 60.648C49.2974 60.86 49.7594 61.158 50.1434 61.542C50.5274 61.922 50.8254 62.378 51.0374 62.91C51.2494 63.442 51.3554 64.026 51.3554 64.662ZM49.7054 64.662C49.7054 64.186 49.6414 63.76 49.5134 63.384C49.3854 63.004 49.2034 62.684 48.9674 62.424C48.7314 62.16 48.4434 61.958 48.1034 61.818C47.7674 61.678 47.3874 61.608 46.9634 61.608H45.2774V67.716H46.9634C47.3874 67.716 47.7674 67.646 48.1034 67.506C48.4434 67.366 48.7314 67.166 48.9674 66.906C49.2034 66.642 49.3854 66.322 49.5134 65.946C49.6414 65.566 49.7054 65.138 49.7054 64.662ZM56.1082 67.698C56.4202 67.698 56.6982 67.646 56.9422 67.542C57.1902 67.438 57.3982 67.292 57.5662 67.104C57.7382 66.916 57.8682 66.688 57.9562 66.42C58.0482 66.152 58.0942 65.852 58.0942 65.52V60.324H59.7082V65.52C59.7082 66.036 59.6242 66.514 59.4562 66.954C59.2922 67.39 59.0542 67.768 58.7422 68.088C58.4302 68.404 58.0522 68.652 57.6082 68.832C57.1642 69.008 56.6642 69.096 56.1082 69.096C55.5522 69.096 55.0522 69.008 54.6082 68.832C54.1642 68.652 53.7862 68.404 53.4742 68.088C53.1662 67.768 52.9282 67.39 52.7602 66.954C52.5962 66.514 52.5142 66.036 52.5142 65.52V60.324H54.1282V65.514C54.1282 65.846 54.1722 66.146 54.2602 66.414C54.3522 66.682 54.4822 66.912 54.6502 67.104C54.8182 67.292 55.0242 67.438 55.2682 67.542C55.5162 67.646 55.7962 67.698 56.1082 67.698ZM62.9607 67.668H66.4347V69H61.3467V60.324H62.9607V67.668ZM75.3875 64.662C75.3875 65.298 75.2815 65.888 75.0695 66.432C74.8575 66.972 74.5595 67.44 74.1755 67.836C73.7915 68.232 73.3295 68.542 72.7895 68.766C72.2495 68.986 71.6515 69.096 70.9955 69.096C70.3395 69.096 69.7395 68.986 69.1955 68.766C68.6555 68.542 68.1915 68.232 67.8035 67.836C67.4195 67.44 67.1215 66.972 66.9095 66.432C66.6975 65.888 66.5915 65.298 66.5915 64.662C66.5915 64.026 66.6975 63.438 66.9095 62.898C67.1215 62.354 67.4195 61.884 67.8035 61.488C68.1915 61.092 68.6555 60.784 69.1955 60.564C69.7395 60.34 70.3395 60.228 70.9955 60.228C71.6515 60.228 72.2495 60.34 72.7895 60.564C73.3295 60.788 73.7915 61.098 74.1755 61.494C74.5595 61.886 74.8575 62.354 75.0695 62.898C75.2815 63.438 75.3875 64.026 75.3875 64.662ZM73.7315 64.662C73.7315 64.186 73.6675 63.76 73.5395 63.384C73.4155 63.004 73.2355 62.682 72.9995 62.418C72.7635 62.154 72.4755 61.952 72.1355 61.812C71.7995 61.672 71.4195 61.602 70.9955 61.602C70.5715 61.602 70.1895 61.672 69.8495 61.812C69.5095 61.952 69.2195 62.154 68.9795 62.418C68.7435 62.682 68.5615 63.004 68.4335 63.384C68.3055 63.76 68.2415 64.186 68.2415 64.662C68.2415 65.138 68.3055 65.566 68.4335 65.946C68.5615 66.322 68.7435 66.642 68.9795 66.906C69.2195 67.166 69.5095 67.366 69.8495 67.506C70.1895 67.646 70.5715 67.716 70.9955 67.716C71.4195 67.716 71.7995 67.646 72.1355 67.506C72.4755 67.366 72.7635 67.166 72.9995 66.906C73.2355 66.642 73.4155 66.322 73.5395 65.946C73.6675 65.566 73.7315 65.138 73.7315 64.662ZM81.3131 61.902C81.2691 61.99 81.2171 62.052 81.1571 62.088C81.1011 62.124 81.0331 62.142 80.9531 62.142C80.8731 62.142 80.7831 62.112 80.6831 62.052C80.5831 61.988 80.4651 61.918 80.3291 61.842C80.1931 61.766 80.0331 61.698 79.8491 61.638C79.6691 61.574 79.4551 61.542 79.2071 61.542C78.9831 61.542 78.7871 61.57 78.6191 61.626C78.4551 61.678 78.3151 61.752 78.1991 61.848C78.0871 61.944 78.0031 62.06 77.9471 62.196C77.8911 62.328 77.8631 62.474 77.8631 62.634C77.8631 62.838 77.9191 63.008 78.0311 63.144C78.1471 63.28 78.2991 63.396 78.4871 63.492C78.6751 63.588 78.8891 63.674 79.1291 63.75C79.3691 63.826 79.6131 63.908 79.8611 63.996C80.1131 64.08 80.3591 64.18 80.5991 64.296C80.8391 64.408 81.0531 64.552 81.2411 64.728C81.4291 64.9 81.5791 65.112 81.6911 65.364C81.8071 65.616 81.8651 65.922 81.8651 66.282C81.8651 66.674 81.7971 67.042 81.6611 67.386C81.5291 67.726 81.3331 68.024 81.0731 68.28C80.8171 68.532 80.5031 68.732 80.1311 68.88C79.7591 69.024 79.3331 69.096 78.8531 69.096C78.5771 69.096 78.3051 69.068 78.0371 69.012C77.7691 68.96 77.5111 68.884 77.2631 68.784C77.0191 68.684 76.7891 68.564 76.5731 68.424C76.3611 68.284 76.1711 68.128 76.0031 67.956L76.4711 67.182C76.5151 67.126 76.5671 67.08 76.6271 67.044C76.6911 67.004 76.7611 66.984 76.8371 66.984C76.9371 66.984 77.0451 67.026 77.1611 67.11C77.2771 67.19 77.4131 67.28 77.5691 67.38C77.7291 67.48 77.9151 67.572 78.1271 67.656C78.3431 67.736 78.6011 67.776 78.9011 67.776C79.3611 67.776 79.7171 67.668 79.9691 67.452C80.2211 67.232 80.3471 66.918 80.3471 66.51C80.3471 66.282 80.2891 66.096 80.1731 65.952C80.0611 65.808 79.9111 65.688 79.7231 65.592C79.5351 65.492 79.3211 65.408 79.0811 65.34C78.8411 65.272 78.5971 65.198 78.3491 65.118C78.1011 65.038 77.8571 64.942 77.6171 64.83C77.3771 64.718 77.1631 64.572 76.9751 64.392C76.7871 64.212 76.6351 63.988 76.5191 63.72C76.4071 63.448 76.3511 63.114 76.3511 62.718C76.3511 62.402 76.4131 62.094 76.5371 61.794C76.6651 61.494 76.8491 61.228 77.0891 60.996C77.3331 60.764 77.6311 60.578 77.9831 60.438C78.3351 60.298 78.7371 60.228 79.1891 60.228C79.7011 60.228 80.1731 60.308 80.6051 60.468C81.0371 60.628 81.4051 60.852 81.7091 61.14L81.3131 61.902Z" fill="white"/>
<circle cx="44" cy="24" r="23" stroke="#D8D7CE" stroke-width="2"/>
<g clip-path="url(#clip0_1_191)">
<path d="M52.62 16.22C52.5038 16.1261 52.3681 16.0593 52.2227 16.0247C52.0773 15.9901 51.9261 15.9885 51.78 16.02L44 17.77L36.22 16C36.0716 15.9665 35.9176 15.9673 35.7695 16.0023C35.6215 16.0373 35.4834 16.1056 35.3658 16.2021C35.2481 16.2985 35.154 16.4205 35.0906 16.5588C35.0273 16.6971 34.9963 16.848 35 17V29.2C34.9943 29.4312 35.069 29.6572 35.2112 29.8395C35.3534 30.0218 35.5544 30.1492 35.78 30.2L43.78 32H44.22L52.22 30.2C52.4456 30.1492 52.6466 30.0218 52.7888 29.8395C52.931 29.6572 53.0056 29.4312 53 29.2V17C52.9993 16.8498 52.9648 16.7017 52.899 16.5667C52.8332 16.4316 52.7379 16.3132 52.62 16.22ZM37 18.25L43 19.6V29.75L37 28.4V18.25ZM51 28.4L45 29.75V19.6L51 18.25V28.4Z" fill="#D8D7CE"/>
</g>
<defs>
<clipPath id="clip0_1_191">
<rect width="24" height="24" fill="white" transform="translate(32 12)"/>
</clipPath>
</defs>
</svg>
