<svg width="88" height="72" viewBox="0 0 88 72" fill="none" xmlns="http://www.w3.org/2000/svg">
<path d="M14.3766 61.962V64.422H16.7106V65.52H14.3766V67.992H13.1766V65.52H10.8546V64.422H13.1766V61.962H14.3766ZM21.0195 60.228C21.4195 60.228 21.7795 60.286 22.0995 60.402C22.4235 60.514 22.6995 60.672 22.9275 60.876C23.1555 61.076 23.3295 61.312 23.4495 61.584C23.5735 61.856 23.6355 62.15 23.6355 62.466C23.6355 62.742 23.6035 62.986 23.5395 63.198C23.4795 63.406 23.3895 63.588 23.2695 63.744C23.1535 63.9 23.0095 64.032 22.8375 64.14C22.6695 64.248 22.4775 64.338 22.2615 64.41C22.7815 64.574 23.1695 64.824 23.4255 65.16C23.6815 65.496 23.8095 65.918 23.8095 66.426C23.8095 66.858 23.7295 67.24 23.5695 67.572C23.4095 67.904 23.1935 68.184 22.9215 68.412C22.6495 68.636 22.3335 68.806 21.9735 68.922C21.6175 69.038 21.2395 69.096 20.8395 69.096C20.4035 69.096 20.0235 69.046 19.6995 68.946C19.3755 68.846 19.0935 68.698 18.8535 68.502C18.6135 68.306 18.4095 68.066 18.2415 67.782C18.0735 67.498 17.9295 67.17 17.8095 66.798L18.4635 66.528C18.5755 66.48 18.6895 66.456 18.8055 66.456C18.9095 66.456 19.0015 66.478 19.0815 66.522C19.1655 66.566 19.2295 66.63 19.2735 66.714C19.3455 66.854 19.4235 66.992 19.5075 67.128C19.5955 67.264 19.6995 67.386 19.8195 67.494C19.9395 67.598 20.0795 67.684 20.2395 67.752C20.4035 67.816 20.5975 67.848 20.8215 67.848C21.0735 67.848 21.2935 67.808 21.4815 67.728C21.6695 67.644 21.8255 67.536 21.9495 67.404C22.0775 67.272 22.1715 67.126 22.2315 66.966C22.2955 66.802 22.3275 66.638 22.3275 66.474C22.3275 66.266 22.3055 66.078 22.2615 65.91C22.2175 65.738 22.1255 65.592 21.9855 65.472C21.8455 65.352 21.6435 65.258 21.3795 65.19C21.1195 65.122 20.7695 65.088 20.3295 65.088V64.032C20.6935 64.028 20.9955 63.994 21.2355 63.93C21.4755 63.866 21.6655 63.778 21.8055 63.666C21.9495 63.55 22.0495 63.412 22.1055 63.252C22.1615 63.092 22.1895 62.916 22.1895 62.724C22.1895 62.312 22.0775 62.002 21.8535 61.794C21.6295 61.582 21.3235 61.476 20.9355 61.476C20.5835 61.476 20.2915 61.57 20.0595 61.758C19.8275 61.942 19.6655 62.18 19.5735 62.472C19.5255 62.624 19.4595 62.734 19.3755 62.802C19.2915 62.866 19.1815 62.898 19.0455 62.898C18.9815 62.898 18.9135 62.892 18.8415 62.88L18.0615 62.742C18.1215 62.326 18.2375 61.962 18.4095 61.65C18.5815 61.334 18.7955 61.072 19.0515 60.864C19.3115 60.652 19.6075 60.494 19.9395 60.39C20.2755 60.282 20.6355 60.228 21.0195 60.228ZM24.7105 68.088C24.7105 67.976 24.7305 67.872 24.7705 67.776C24.8145 67.676 24.8745 67.59 24.9505 67.518C25.0265 67.442 25.1185 67.384 25.2265 67.344C25.3345 67.3 25.4525 67.278 25.5805 67.278C25.7325 67.278 25.8645 67.306 25.9765 67.362C26.0885 67.414 26.1825 67.488 26.2585 67.584C26.3345 67.676 26.3905 67.784 26.4265 67.908C26.4625 68.028 26.4805 68.156 26.4805 68.292C26.4805 68.484 26.4505 68.686 26.3905 68.898C26.3345 69.11 26.2505 69.322 26.1385 69.534C26.0265 69.746 25.8885 69.952 25.7245 70.152C25.5605 70.352 25.3725 70.536 25.1605 70.704L24.9025 70.47C24.8305 70.41 24.7945 70.336 24.7945 70.248C24.7945 70.216 24.8045 70.18 24.8245 70.14C24.8485 70.1 24.8765 70.064 24.9085 70.032C24.9525 69.984 25.0065 69.924 25.0705 69.852C25.1345 69.784 25.1985 69.704 25.2625 69.612C25.3265 69.524 25.3845 69.426 25.4365 69.318C25.4925 69.214 25.5325 69.102 25.5565 68.982C25.4325 68.982 25.3185 68.96 25.2145 68.916C25.1105 68.868 25.0205 68.804 24.9445 68.724C24.8725 68.644 24.8145 68.55 24.7705 68.442C24.7305 68.334 24.7105 68.216 24.7105 68.088ZM32.8598 60.954C32.8598 61.166 32.7918 61.338 32.6558 61.47C32.5238 61.602 32.3018 61.668 31.9898 61.668H29.6018L29.2898 63.48C29.6818 63.4 30.0398 63.36 30.3638 63.36C30.8198 63.36 31.2198 63.428 31.5638 63.564C31.9118 63.7 32.2038 63.888 32.4398 64.128C32.6758 64.368 32.8538 64.65 32.9738 64.974C33.0938 65.294 33.1538 65.64 33.1538 66.012C33.1538 66.472 33.0718 66.892 32.9078 67.272C32.7478 67.652 32.5238 67.978 32.2358 68.25C31.9478 68.518 31.6058 68.726 31.2098 68.874C30.8178 69.022 30.3898 69.096 29.9258 69.096C29.6538 69.096 29.3958 69.068 29.1518 69.012C28.9078 68.956 28.6778 68.882 28.4618 68.79C28.2498 68.694 28.0518 68.586 27.8678 68.466C27.6878 68.342 27.5258 68.212 27.3818 68.076L27.8378 67.446C27.9338 67.31 28.0618 67.242 28.2218 67.242C28.3218 67.242 28.4218 67.274 28.5218 67.338C28.6258 67.402 28.7458 67.472 28.8818 67.548C29.0178 67.624 29.1758 67.694 29.3558 67.758C29.5358 67.822 29.7538 67.854 30.0098 67.854C30.2818 67.854 30.5218 67.81 30.7298 67.722C30.9378 67.634 31.1098 67.512 31.2458 67.356C31.3858 67.196 31.4898 67.008 31.5578 66.792C31.6298 66.572 31.6658 66.334 31.6658 66.078C31.6658 65.606 31.5278 65.238 31.2518 64.974C30.9798 64.706 30.5778 64.572 30.0458 64.572C29.6258 64.572 29.2038 64.648 28.7798 64.8L27.8558 64.536L28.5758 60.324H32.8598V60.954ZM44.403 69H42.777V65.208H38.709V69H37.083V60.324H38.709V64.056H42.777V60.324H44.403V69ZM54.4753 64.662C54.4753 65.298 54.3693 65.888 54.1573 66.432C53.9453 66.972 53.6473 67.44 53.2633 67.836C52.8793 68.232 52.4173 68.542 51.8773 68.766C51.3373 68.986 50.7393 69.096 50.0833 69.096C49.4273 69.096 48.8273 68.986 48.2833 68.766C47.7433 68.542 47.2793 68.232 46.8913 67.836C46.5073 67.44 46.2093 66.972 45.9973 66.432C45.7853 65.888 45.6793 65.298 45.6793 64.662C45.6793 64.026 45.7853 63.438 45.9973 62.898C46.2093 62.354 46.5073 61.884 46.8913 61.488C47.2793 61.092 47.7433 60.784 48.2833 60.564C48.8273 60.34 49.4273 60.228 50.0833 60.228C50.7393 60.228 51.3373 60.34 51.8773 60.564C52.4173 60.788 52.8793 61.098 53.2633 61.494C53.6473 61.886 53.9453 62.354 54.1573 62.898C54.3693 63.438 54.4753 64.026 54.4753 64.662ZM52.8193 64.662C52.8193 64.186 52.7553 63.76 52.6273 63.384C52.5033 63.004 52.3233 62.682 52.0873 62.418C51.8513 62.154 51.5633 61.952 51.2233 61.812C50.8873 61.672 50.5073 61.602 50.0833 61.602C49.6593 61.602 49.2773 61.672 48.9373 61.812C48.5973 61.952 48.3073 62.154 48.0673 62.418C47.8313 62.682 47.6493 63.004 47.5213 63.384C47.3933 63.76 47.3293 64.186 47.3293 64.662C47.3293 65.138 47.3933 65.566 47.5213 65.946C47.6493 66.322 47.8313 66.642 48.0673 66.906C48.3073 67.166 48.5973 67.366 48.9373 67.506C49.2773 67.646 49.6593 67.716 50.0833 67.716C50.5073 67.716 50.8873 67.646 51.2233 67.506C51.5633 67.366 51.8513 67.166 52.0873 66.906C52.3233 66.642 52.5033 66.322 52.6273 65.946C52.7553 65.566 52.8193 65.138 52.8193 64.662ZM57.419 65.61V69H55.805V60.324H58.451C59.043 60.324 59.549 60.386 59.969 60.51C60.393 60.63 60.739 60.8 61.007 61.02C61.279 61.24 61.477 61.504 61.601 61.812C61.729 62.116 61.793 62.452 61.793 62.82C61.793 63.112 61.749 63.388 61.661 63.648C61.577 63.908 61.453 64.144 61.289 64.356C61.129 64.568 60.929 64.754 60.689 64.914C60.453 65.074 60.183 65.202 59.879 65.298C60.083 65.414 60.259 65.58 60.407 65.796L62.579 69H61.127C60.987 69 60.867 68.972 60.767 68.916C60.671 68.86 60.589 68.78 60.521 68.676L58.697 65.898C58.629 65.794 58.553 65.72 58.469 65.676C58.389 65.632 58.269 65.61 58.109 65.61H57.419ZM57.419 64.452H58.427C58.731 64.452 58.995 64.414 59.219 64.338C59.447 64.262 59.633 64.158 59.777 64.026C59.925 63.89 60.035 63.73 60.107 63.546C60.179 63.362 60.215 63.16 60.215 62.94C60.215 62.5 60.069 62.162 59.777 61.926C59.489 61.69 59.047 61.572 58.451 61.572H57.419V64.452ZM71.2403 69H69.9923C69.8523 69 69.7363 68.966 69.6443 68.898C69.5563 68.826 69.4923 68.738 69.4523 68.634L68.8043 66.864H65.2103L64.5623 68.634C64.5303 68.726 64.4663 68.81 64.3703 68.886C64.2783 68.962 64.1643 69 64.0283 69H62.7743L66.1823 60.324H67.8323L71.2403 69ZM65.6243 65.724H68.3903L67.3343 62.838C67.2863 62.71 67.2323 62.56 67.1723 62.388C67.1163 62.212 67.0603 62.022 67.0043 61.818C66.9483 62.022 66.8923 62.212 66.8363 62.388C66.7843 62.564 66.7323 62.718 66.6803 62.85L65.6243 65.724ZM76.7838 61.902C76.7398 61.99 76.6878 62.052 76.6278 62.088C76.5718 62.124 76.5038 62.142 76.4238 62.142C76.3438 62.142 76.2538 62.112 76.1538 62.052C76.0538 61.988 75.9358 61.918 75.7998 61.842C75.6638 61.766 75.5038 61.698 75.3198 61.638C75.1398 61.574 74.9258 61.542 74.6778 61.542C74.4538 61.542 74.2578 61.57 74.0898 61.626C73.9258 61.678 73.7858 61.752 73.6698 61.848C73.5578 61.944 73.4738 62.06 73.4178 62.196C73.3618 62.328 73.3338 62.474 73.3338 62.634C73.3338 62.838 73.3898 63.008 73.5018 63.144C73.6178 63.28 73.7698 63.396 73.9578 63.492C74.1458 63.588 74.3598 63.674 74.5998 63.75C74.8398 63.826 75.0838 63.908 75.3318 63.996C75.5838 64.08 75.8298 64.18 76.0698 64.296C76.3098 64.408 76.5238 64.552 76.7118 64.728C76.8998 64.9 77.0498 65.112 77.1618 65.364C77.2778 65.616 77.3358 65.922 77.3358 66.282C77.3358 66.674 77.2678 67.042 77.1318 67.386C76.9998 67.726 76.8038 68.024 76.5438 68.28C76.2878 68.532 75.9738 68.732 75.6018 68.88C75.2298 69.024 74.8038 69.096 74.3238 69.096C74.0478 69.096 73.7758 69.068 73.5078 69.012C73.2398 68.96 72.9818 68.884 72.7338 68.784C72.4898 68.684 72.2598 68.564 72.0438 68.424C71.8318 68.284 71.6418 68.128 71.4738 67.956L71.9418 67.182C71.9858 67.126 72.0378 67.08 72.0978 67.044C72.1618 67.004 72.2318 66.984 72.3078 66.984C72.4078 66.984 72.5158 67.026 72.6318 67.11C72.7478 67.19 72.8838 67.28 73.0398 67.38C73.1998 67.48 73.3858 67.572 73.5978 67.656C73.8138 67.736 74.0718 67.776 74.3718 67.776C74.8318 67.776 75.1878 67.668 75.4398 67.452C75.6918 67.232 75.8178 66.918 75.8178 66.51C75.8178 66.282 75.7598 66.096 75.6438 65.952C75.5318 65.808 75.3818 65.688 75.1938 65.592C75.0058 65.492 74.7918 65.408 74.5518 65.34C74.3118 65.272 74.0678 65.198 73.8198 65.118C73.5718 65.038 73.3278 64.942 73.0878 64.83C72.8478 64.718 72.6338 64.572 72.4458 64.392C72.2578 64.212 72.1058 63.988 71.9898 63.72C71.8778 63.448 71.8218 63.114 71.8218 62.718C71.8218 62.402 71.8838 62.094 72.0078 61.794C72.1358 61.494 72.3198 61.228 72.5598 60.996C72.8038 60.764 73.1018 60.578 73.4538 60.438C73.8058 60.298 74.2078 60.228 74.6598 60.228C75.1718 60.228 75.6438 60.308 76.0758 60.468C76.5078 60.628 76.8758 60.852 77.1798 61.14L76.7838 61.902Z" fill="white"/>
<circle cx="44" cy="24" r="23" stroke="#D8D7CE" stroke-width="2"/>
<g clip-path="url(#clip0_1_200)">
<path d="M50.26 15H37.74C37.0133 15 36.3164 15.2887 35.8025 15.8025C35.2887 16.3164 35 17.0133 35 17.74V30.26C35 30.9867 35.2887 31.6836 35.8025 32.1975C36.3164 32.7113 37.0133 33 37.74 33H50.26C50.9867 33 51.6836 32.7113 52.1975 32.1975C52.7113 31.6836 53 30.9867 53 30.26V17.74C53 17.0133 52.7113 16.3164 52.1975 15.8025C51.6836 15.2887 50.9867 15 50.26 15ZM39 23H37V21H39V23ZM37 25H39V27H37V25ZM41 17H47V31H41V17ZM51 23H49V21H51V23ZM49 25H51V27H49V25ZM51 17.74V19H49V17H50.26C50.3572 17 50.4534 17.0191 50.5432 17.0563C50.633 17.0935 50.7145 17.148 50.7833 17.2167C50.852 17.2855 50.9065 17.367 50.9437 17.4568C50.9809 17.5466 51 17.6428 51 17.74ZM37.74 17H39V19H37V17.74C37 17.6428 37.0191 17.5466 37.0563 17.4568C37.0935 17.367 37.148 17.2855 37.2167 17.2167C37.2855 17.148 37.367 17.0935 37.4568 17.0563C37.5466 17.0191 37.6428 17 37.74 17ZM37 30.26V29H39V31H37.74C37.6428 31 37.5466 30.9809 37.4568 30.9437C37.367 30.9065 37.2855 30.852 37.2167 30.7833C37.148 30.7145 37.0935 30.633 37.0563 30.5432C37.0191 30.4534 37 30.3572 37 30.26ZM51 30.26C51 30.4563 50.922 30.6445 50.7833 30.7833C50.6445 30.922 50.4563 31 50.26 31H49V29H51V30.26Z" fill="#D8D7CE"/>
</g>
<defs>
<clipPath id="clip0_1_200">
<rect width="24" height="24" fill="white" transform="translate(32 12)"/>
</clipPath>
</defs>
</svg>
