<svg width="183" height="151" viewBox="0 0 183 151" fill="none" xmlns="http://www.w3.org/2000/svg">
<path d="M61.623 90.3215V91.9515H56.993V104.652H55.053V91.9515H50.403V90.3215H61.623ZM76.1218 104.652H74.6218C74.4485 104.652 74.3085 104.608 74.2018 104.522C74.0951 104.435 74.0151 104.325 73.9618 104.192L72.6218 100.732H66.1918L64.8518 104.192C64.8051 104.312 64.7251 104.418 64.6118 104.512C64.4985 104.605 64.3585 104.652 64.1918 104.652H62.6918L68.4218 90.3215H70.3918L76.1218 104.652ZM66.7318 99.3315H72.0818L69.8318 93.5015C69.6851 93.1415 69.5418 92.6915 69.4018 92.1515C69.3285 92.4249 69.2551 92.6782 69.1818 92.9115C69.1151 93.1382 69.0485 93.3382 68.9818 93.5115L66.7318 99.3315ZM82.0555 98.6715V104.652H80.1255V90.3215H84.1755C85.0822 90.3215 85.8655 90.4149 86.5255 90.6015C87.1855 90.7815 87.7289 91.0449 88.1555 91.3915C88.5889 91.7382 88.9089 92.1582 89.1155 92.6515C89.3222 93.1382 89.4255 93.6849 89.4255 94.2915C89.4255 94.7982 89.3455 95.2715 89.1855 95.7115C89.0255 96.1515 88.7922 96.5482 88.4855 96.9015C88.1855 97.2482 87.8155 97.5449 87.3755 97.7915C86.9422 98.0382 86.4489 98.2249 85.8955 98.3515C86.1355 98.4915 86.3489 98.6949 86.5355 98.9615L90.7155 104.652H88.9955C88.6422 104.652 88.3822 104.515 88.2155 104.242L84.4955 99.1215C84.3822 98.9615 84.2589 98.8482 84.1255 98.7815C83.9922 98.7082 83.7922 98.6715 83.5255 98.6715H82.0555ZM82.0555 97.2615H84.0855C84.6522 97.2615 85.1489 97.1949 85.5755 97.0615C86.0089 96.9215 86.3689 96.7282 86.6555 96.4815C86.9489 96.2282 87.1689 95.9282 87.3155 95.5815C87.4622 95.2349 87.5355 94.8515 87.5355 94.4315C87.5355 93.5782 87.2522 92.9349 86.6855 92.5015C86.1255 92.0682 85.2889 91.8515 84.1755 91.8515H82.0555V97.2615ZM103.627 90.3215V91.9015H96.7466V96.6615H102.317V98.1815H96.7466V103.072H103.627V104.652H94.7966V90.3215H103.627ZM120.208 104.652H118.708C118.534 104.652 118.394 104.608 118.288 104.522C118.181 104.435 118.101 104.325 118.048 104.192L116.708 100.732H110.278L108.938 104.192C108.891 104.312 108.811 104.418 108.698 104.512C108.584 104.605 108.444 104.652 108.278 104.652H106.778L112.508 90.3215H114.478L120.208 104.652ZM110.818 99.3315H116.168L113.918 93.5015C113.771 93.1415 113.628 92.6915 113.488 92.1515C113.414 92.4249 113.341 92.6782 113.268 92.9115C113.201 93.1382 113.134 93.3382 113.068 93.5115L110.818 99.3315ZM131.351 92.5615C131.291 92.6615 131.228 92.7382 131.161 92.7915C131.095 92.8382 131.008 92.8615 130.901 92.8615C130.788 92.8615 130.655 92.8049 130.501 92.6915C130.355 92.5782 130.165 92.4549 129.931 92.3215C129.705 92.1815 129.428 92.0549 129.101 91.9415C128.781 91.8282 128.391 91.7715 127.931 91.7715C127.498 91.7715 127.115 91.8315 126.781 91.9515C126.448 92.0649 126.168 92.2215 125.941 92.4215C125.721 92.6215 125.555 92.8582 125.441 93.1315C125.328 93.3982 125.271 93.6882 125.271 94.0015C125.271 94.4015 125.368 94.7349 125.561 95.0015C125.761 95.2615 126.021 95.4849 126.341 95.6715C126.668 95.8582 127.035 96.0215 127.441 96.1615C127.855 96.2949 128.275 96.4349 128.701 96.5815C129.135 96.7282 129.555 96.8949 129.961 97.0815C130.375 97.2615 130.741 97.4915 131.061 97.7715C131.388 98.0515 131.648 98.3949 131.841 98.8015C132.041 99.2082 132.141 99.7082 132.141 100.302C132.141 100.928 132.035 101.518 131.821 102.072C131.608 102.618 131.295 103.095 130.881 103.502C130.475 103.908 129.971 104.228 129.371 104.462C128.778 104.695 128.101 104.812 127.341 104.812C126.415 104.812 125.568 104.645 124.801 104.312C124.041 103.972 123.391 103.515 122.851 102.942L123.411 102.022C123.465 101.948 123.528 101.888 123.601 101.842C123.681 101.788 123.768 101.762 123.861 101.762C124.001 101.762 124.161 101.838 124.341 101.992C124.521 102.138 124.745 102.302 125.011 102.482C125.285 102.662 125.611 102.828 125.991 102.982C126.378 103.128 126.848 103.202 127.401 103.202C127.861 103.202 128.271 103.138 128.631 103.012C128.991 102.885 129.295 102.708 129.541 102.482C129.795 102.248 129.988 101.972 130.121 101.652C130.255 101.332 130.321 100.975 130.321 100.582C130.321 100.148 130.221 99.7949 130.021 99.5215C129.828 99.2415 129.571 99.0082 129.251 98.8215C128.931 98.6349 128.565 98.4782 128.151 98.3515C127.745 98.2182 127.325 98.0849 126.891 97.9515C126.465 97.8115 126.045 97.6515 125.631 97.4715C125.225 97.2915 124.861 97.0582 124.541 96.7715C124.221 96.4849 123.961 96.1282 123.761 95.7015C123.568 95.2682 123.471 94.7349 123.471 94.1015C123.471 93.5949 123.568 93.1049 123.761 92.6315C123.961 92.1582 124.248 91.7382 124.621 91.3715C124.995 91.0049 125.455 90.7115 126.001 90.4915C126.555 90.2715 127.188 90.1615 127.901 90.1615C128.701 90.1615 129.431 90.2882 130.091 90.5415C130.751 90.7949 131.328 91.1615 131.821 91.6415L131.351 92.5615Z" fill="white"/>
<path d="M112.987 22.5765C114.14 21.4234 114.775 19.8921 114.775 18.2631C114.775 16.6341 114.14 15.1028 112.987 13.9497L108.15 9.1116C106.997 7.95851 105.466 7.32401 103.837 7.32401C102.209 7.32401 100.677 7.95851 99.5276 9.10855L67.6879 40.8547C67.3116 41.23 67.1 41.7396 67.1 42.271V53.9088C67.1 54.4611 67.5478 54.9088 68.1 54.9088H79.733C80.2624 54.9088 80.7702 54.6989 81.1451 54.3251L112.987 22.5765ZM103.837 13.425L108.678 18.2601L103.828 23.0921L98.9908 18.257L103.837 13.425ZM74.2 48.8078C73.6478 48.8078 73.2 48.3601 73.2 47.8078V43.9728L94.672 22.5643L99.5093 27.4024L78.0404 48.8078H74.2ZM67.1 63.0098C67.1 61.9053 67.9955 61.0098 69.1 61.0098H113.9C115.005 61.0098 115.9 61.9053 115.9 63.0098V65.1108C115.9 66.2154 115.005 67.1108 113.9 67.1108H69.1C67.9955 67.1108 67.1 66.2154 67.1 65.1108V63.0098Z" fill="#D8D7CE"/>
</svg>
