<svg width="272" height="80" viewBox="0 0 272 80" fill="none" xmlns="http://www.w3.org/2000/svg">
<path d="M102.51 36.34V40.61H106.58V41.96H102.51V46.26H101.05V41.96H97V40.61H101.05V36.34H102.51ZM115.802 33.51C116.408 33.51 116.968 33.5967 117.482 33.77C117.995 33.9433 118.435 34.19 118.802 34.51C119.175 34.83 119.465 35.2167 119.672 35.67C119.878 36.1233 119.982 36.6267 119.982 37.18C119.982 37.6333 119.922 38.04 119.802 38.4C119.688 38.7533 119.522 39.0667 119.302 39.34C119.088 39.6067 118.828 39.8333 118.522 40.02C118.215 40.2067 117.872 40.3567 117.492 40.47C118.425 40.7167 119.125 41.13 119.592 41.71C120.065 42.29 120.302 43.0167 120.302 43.89C120.302 44.55 120.175 45.1433 119.922 45.67C119.675 46.1967 119.335 46.6467 118.902 47.02C118.468 47.3867 117.962 47.67 117.382 47.87C116.808 48.0633 116.192 48.16 115.532 48.16C114.772 48.16 114.122 48.0667 113.582 47.88C113.042 47.6867 112.585 47.4233 112.212 47.09C111.838 46.7567 111.532 46.3633 111.292 45.91C111.052 45.45 110.848 44.9533 110.682 44.42L111.442 44.1C111.582 44.04 111.722 44.01 111.862 44.01C111.995 44.01 112.112 44.04 112.212 44.1C112.318 44.1533 112.398 44.24 112.452 44.36C112.465 44.3867 112.478 44.4167 112.492 44.45C112.505 44.4767 112.518 44.5067 112.532 44.54C112.625 44.7333 112.738 44.9533 112.872 45.2C113.005 45.44 113.185 45.6667 113.412 45.88C113.638 46.0933 113.918 46.2733 114.252 46.42C114.592 46.5667 115.012 46.64 115.512 46.64C116.012 46.64 116.448 46.56 116.822 46.4C117.202 46.2333 117.515 46.02 117.762 45.76C118.015 45.5 118.205 45.21 118.332 44.89C118.458 44.57 118.522 44.2533 118.522 43.94C118.522 43.5533 118.468 43.2 118.362 42.88C118.262 42.56 118.075 42.2833 117.802 42.05C117.535 41.8167 117.162 41.6333 116.682 41.5C116.208 41.3667 115.598 41.3 114.852 41.3V40.01C115.458 40.0033 115.975 39.9367 116.402 39.81C116.835 39.6833 117.188 39.51 117.462 39.29C117.735 39.07 117.932 38.8067 118.052 38.5C118.178 38.1933 118.242 37.8533 118.242 37.48C118.242 37.0667 118.175 36.7067 118.042 36.4C117.915 36.0933 117.738 35.84 117.512 35.64C117.285 35.44 117.015 35.29 116.702 35.19C116.395 35.09 116.062 35.04 115.702 35.04C115.342 35.04 115.008 35.0933 114.702 35.2C114.395 35.3067 114.122 35.4567 113.882 35.65C113.648 35.8367 113.452 36.0633 113.292 36.33C113.132 36.59 113.012 36.8733 112.932 37.18C112.878 37.3733 112.798 37.5133 112.692 37.6C112.585 37.6867 112.448 37.73 112.282 37.73C112.248 37.73 112.212 37.73 112.172 37.73C112.138 37.7233 112.098 37.7167 112.052 37.71L111.122 37.55C111.215 36.8967 111.395 36.32 111.662 35.82C111.928 35.3133 112.265 34.89 112.672 34.55C113.085 34.21 113.555 33.9533 114.082 33.78C114.615 33.6 115.188 33.51 115.802 33.51ZM124.143 46.77C124.143 46.6167 124.17 46.4733 124.223 46.34C124.283 46.2 124.363 46.08 124.463 45.98C124.57 45.8733 124.696 45.79 124.843 45.73C124.99 45.67 125.15 45.64 125.323 45.64C125.523 45.64 125.7 45.6767 125.853 45.75C126.013 45.8233 126.143 45.9267 126.243 46.06C126.35 46.1867 126.43 46.3367 126.483 46.51C126.536 46.6767 126.563 46.86 126.563 47.06C126.563 47.36 126.52 47.6733 126.433 48C126.346 48.32 126.223 48.6367 126.063 48.95C125.903 49.27 125.703 49.58 125.463 49.88C125.23 50.18 124.963 50.4567 124.663 50.71L124.363 50.42C124.276 50.34 124.233 50.2467 124.233 50.14C124.233 50.0533 124.28 49.9633 124.373 49.87C124.44 49.7967 124.523 49.6967 124.623 49.57C124.73 49.45 124.836 49.31 124.943 49.15C125.05 48.99 125.146 48.8133 125.233 48.62C125.326 48.4267 125.393 48.22 125.433 48H125.303C125.13 48 124.973 47.97 124.833 47.91C124.693 47.85 124.57 47.7667 124.463 47.66C124.363 47.5467 124.283 47.4167 124.223 47.27C124.17 47.1167 124.143 46.95 124.143 46.77ZM139.221 34.45C139.221 34.7033 139.141 34.9133 138.981 35.08C138.821 35.24 138.551 35.32 138.171 35.32H133.671L133.011 39.08C133.758 38.92 134.448 38.84 135.081 38.84C135.828 38.84 136.485 38.95 137.051 39.17C137.625 39.39 138.105 39.6933 138.491 40.08C138.878 40.4667 139.168 40.9233 139.361 41.45C139.561 41.9767 139.661 42.55 139.661 43.17C139.661 43.93 139.528 44.6167 139.261 45.23C138.995 45.8433 138.628 46.37 138.161 46.81C137.701 47.2433 137.158 47.5767 136.531 47.81C135.905 48.0433 135.228 48.16 134.501 48.16C134.081 48.16 133.678 48.1167 133.291 48.03C132.905 47.95 132.545 47.84 132.211 47.7C131.878 47.56 131.568 47.4 131.281 47.22C130.995 47.04 130.741 46.85 130.521 46.65L131.061 45.89C131.181 45.7167 131.341 45.63 131.541 45.63C131.668 45.63 131.815 45.6833 131.981 45.79C132.155 45.89 132.361 46.0033 132.601 46.13C132.841 46.2567 133.121 46.3733 133.441 46.48C133.768 46.58 134.155 46.63 134.601 46.63C135.101 46.63 135.551 46.55 135.951 46.39C136.351 46.23 136.691 46.0033 136.971 45.71C137.258 45.41 137.478 45.0533 137.631 44.64C137.785 44.2267 137.861 43.7633 137.861 43.25C137.861 42.8033 137.795 42.4 137.661 42.04C137.535 41.68 137.338 41.3733 137.071 41.12C136.811 40.8667 136.485 40.67 136.091 40.53C135.698 40.39 135.238 40.32 134.711 40.32C134.351 40.32 133.978 40.35 133.591 40.41C133.205 40.47 132.805 40.5667 132.391 40.7L131.271 40.37L132.431 33.67H139.221V34.45ZM162.27 48H160.32V41.48H152.6V48H150.65V33.67H152.6V40.06H160.32V33.67H162.27V48ZM181.077 40.84C181.077 41.9133 180.907 42.9 180.567 43.8C180.227 44.6933 179.747 45.4633 179.127 46.11C178.507 46.7567 177.761 47.26 176.887 47.62C176.021 47.9733 175.061 48.15 174.007 48.15C172.954 48.15 171.994 47.9733 171.127 47.62C170.261 47.26 169.517 46.7567 168.897 46.11C168.277 45.4633 167.797 44.6933 167.457 43.8C167.117 42.9 166.947 41.9133 166.947 40.84C166.947 39.7667 167.117 38.7833 167.457 37.89C167.797 36.99 168.277 36.2167 168.897 35.57C169.517 34.9167 170.261 34.41 171.127 34.05C171.994 33.69 172.954 33.51 174.007 33.51C175.061 33.51 176.021 33.69 176.887 34.05C177.761 34.41 178.507 34.9167 179.127 35.57C179.747 36.2167 180.227 36.99 180.567 37.89C180.907 38.7833 181.077 39.7667 181.077 40.84ZM179.087 40.84C179.087 39.96 178.967 39.17 178.727 38.47C178.487 37.77 178.147 37.18 177.707 36.7C177.267 36.2133 176.734 35.84 176.107 35.58C175.481 35.32 174.781 35.19 174.007 35.19C173.241 35.19 172.544 35.32 171.917 35.58C171.291 35.84 170.754 36.2133 170.307 36.7C169.867 37.18 169.527 37.77 169.287 38.47C169.047 39.17 168.927 39.96 168.927 40.84C168.927 41.72 169.047 42.51 169.287 43.21C169.527 43.9033 169.867 44.4933 170.307 44.98C170.754 45.46 171.291 45.83 171.917 46.09C172.544 46.3433 173.241 46.47 174.007 46.47C174.781 46.47 175.481 46.3433 176.107 46.09C176.734 45.83 177.267 45.46 177.707 44.98C178.147 44.4933 178.487 43.9033 178.727 43.21C178.967 42.51 179.087 41.72 179.087 40.84ZM187.854 42.02V48H185.924V33.67H189.974C190.881 33.67 191.664 33.7633 192.324 33.95C192.984 34.13 193.528 34.3933 193.954 34.74C194.388 35.0867 194.708 35.5067 194.914 36C195.121 36.4867 195.224 37.0333 195.224 37.64C195.224 38.1467 195.144 38.62 194.984 39.06C194.824 39.5 194.591 39.8967 194.284 40.25C193.984 40.5967 193.614 40.8933 193.174 41.14C192.741 41.3867 192.248 41.5733 191.694 41.7C191.934 41.84 192.148 42.0433 192.334 42.31L196.514 48H194.794C194.441 48 194.181 47.8633 194.014 47.59L190.294 42.47C190.181 42.31 190.058 42.1967 189.924 42.13C189.791 42.0567 189.591 42.02 189.324 42.02H187.854ZM187.854 40.61H189.884C190.451 40.61 190.948 40.5433 191.374 40.41C191.808 40.27 192.168 40.0767 192.454 39.83C192.748 39.5767 192.968 39.2767 193.114 38.93C193.261 38.5833 193.334 38.2 193.334 37.78C193.334 36.9267 193.051 36.2833 192.484 35.85C191.924 35.4167 191.088 35.2 189.974 35.2H187.854V40.61ZM212.385 48H210.885C210.712 48 210.572 47.9567 210.465 47.87C210.359 47.7833 210.279 47.6733 210.225 47.54L208.885 44.08H202.455L201.115 47.54C201.069 47.66 200.989 47.7667 200.875 47.86C200.762 47.9533 200.622 48 200.455 48H198.955L204.685 33.67H206.655L212.385 48ZM202.995 42.68H208.345L206.095 36.85C205.949 36.49 205.805 36.04 205.665 35.5C205.592 35.7733 205.519 36.0267 205.445 36.26C205.379 36.4867 205.312 36.6867 205.245 36.86L202.995 42.68ZM223.529 35.91C223.469 36.01 223.406 36.0867 223.339 36.14C223.273 36.1867 223.186 36.21 223.079 36.21C222.966 36.21 222.833 36.1533 222.679 36.04C222.533 35.9267 222.343 35.8033 222.109 35.67C221.883 35.53 221.606 35.4033 221.279 35.29C220.959 35.1767 220.569 35.12 220.109 35.12C219.676 35.12 219.293 35.18 218.959 35.3C218.626 35.4133 218.346 35.57 218.119 35.77C217.899 35.97 217.733 36.2067 217.619 36.48C217.506 36.7467 217.449 37.0367 217.449 37.35C217.449 37.75 217.546 38.0833 217.739 38.35C217.939 38.61 218.199 38.8333 218.519 39.02C218.846 39.2067 219.213 39.37 219.619 39.51C220.033 39.6433 220.453 39.7833 220.879 39.93C221.313 40.0767 221.733 40.2433 222.139 40.43C222.553 40.61 222.919 40.84 223.239 41.12C223.566 41.4 223.826 41.7433 224.019 42.15C224.219 42.5567 224.319 43.0567 224.319 43.65C224.319 44.2767 224.213 44.8667 223.999 45.42C223.786 45.9667 223.473 46.4433 223.059 46.85C222.653 47.2567 222.149 47.5767 221.549 47.81C220.956 48.0433 220.279 48.16 219.519 48.16C218.593 48.16 217.746 47.9933 216.979 47.66C216.219 47.32 215.569 46.8633 215.029 46.29L215.589 45.37C215.643 45.2967 215.706 45.2367 215.779 45.19C215.859 45.1367 215.946 45.11 216.039 45.11C216.179 45.11 216.339 45.1867 216.519 45.34C216.699 45.4867 216.923 45.65 217.189 45.83C217.463 46.01 217.789 46.1767 218.169 46.33C218.556 46.4767 219.026 46.55 219.579 46.55C220.039 46.55 220.449 46.4867 220.809 46.36C221.169 46.2333 221.473 46.0567 221.719 45.83C221.973 45.5967 222.166 45.32 222.299 45C222.433 44.68 222.499 44.3233 222.499 43.93C222.499 43.4967 222.399 43.1433 222.199 42.87C222.006 42.59 221.749 42.3567 221.429 42.17C221.109 41.9833 220.743 41.8267 220.329 41.7C219.923 41.5667 219.503 41.4333 219.069 41.3C218.643 41.16 218.223 41 217.809 40.82C217.403 40.64 217.039 40.4067 216.719 40.12C216.399 39.8333 216.139 39.4767 215.939 39.05C215.746 38.6167 215.649 38.0833 215.649 37.45C215.649 36.9433 215.746 36.4533 215.939 35.98C216.139 35.5067 216.426 35.0867 216.799 34.72C217.173 34.3533 217.633 34.06 218.179 33.84C218.733 33.62 219.366 33.51 220.079 33.51C220.879 33.51 221.609 33.6367 222.269 33.89C222.929 34.1433 223.506 34.51 223.999 34.99L223.529 35.91Z" fill="white"/>
<circle cx="40" cy="40" r="38" stroke="#D8D7CE" stroke-width="4"/>
<g clip-path="url(#clip0_1_760)">
<path d="M50.4333 25H29.5667C28.3555 25 27.194 25.4811 26.3375 26.3375C25.4811 27.194 25 28.3555 25 29.5667V50.4333C25 51.6445 25.4811 52.806 26.3375 53.6625C27.194 54.5189 28.3555 55 29.5667 55H50.4333C51.6445 55 52.806 54.5189 53.6625 53.6625C54.5189 52.806 55 51.6445 55 50.4333V29.5667C55 28.3555 54.5189 27.194 53.6625 26.3375C52.806 25.4811 51.6445 25 50.4333 25V25ZM31.6667 38.3333H28.3333V35H31.6667V38.3333ZM28.3333 41.6667H31.6667V45H28.3333V41.6667ZM35 28.3333H45V51.6667H35V28.3333ZM51.6667 38.3333H48.3333V35H51.6667V38.3333ZM48.3333 41.6667H51.6667V45H48.3333V41.6667ZM51.6667 29.5667V31.6667H48.3333V28.3333H50.4333C50.5953 28.3333 50.7557 28.3652 50.9053 28.4272C51.0549 28.4892 51.1909 28.58 51.3054 28.6946C51.42 28.8091 51.5108 28.9451 51.5728 29.0947C51.6348 29.2443 51.6667 29.4047 51.6667 29.5667V29.5667ZM29.5667 28.3333H31.6667V31.6667H28.3333V29.5667C28.3333 29.4047 28.3652 29.2443 28.4272 29.0947C28.4892 28.9451 28.58 28.8091 28.6946 28.6946C28.8091 28.58 28.9451 28.4892 29.0947 28.4272C29.2443 28.3652 29.4047 28.3333 29.5667 28.3333ZM28.3333 50.4333V48.3333H31.6667V51.6667H29.5667C29.4047 51.6667 29.2443 51.6348 29.0947 51.5728C28.9451 51.5108 28.8091 51.42 28.6946 51.3054C28.58 51.1909 28.4892 51.0549 28.4272 50.9053C28.3652 50.7557 28.3333 50.5953 28.3333 50.4333V50.4333ZM51.6667 50.4333C51.6667 50.7604 51.5367 51.0741 51.3054 51.3054C51.0741 51.5367 50.7604 51.6667 50.4333 51.6667H48.3333V48.3333H51.6667V50.4333Z" fill="#D8D7CE"/>
</g>
<defs>
<clipPath id="clip0_1_760">
<rect width="40" height="40" fill="white" transform="translate(20 20)"/>
</clipPath>
</defs>
</svg>
