<svg width="183" height="151" viewBox="0 0 183 151" fill="none" xmlns="http://www.w3.org/2000/svg">
<path d="M28.0711 90.1475C28.6778 90.1475 29.2378 90.2342 29.7511 90.4075C30.2644 90.5808 30.7044 90.8275 31.0711 91.1475C31.4444 91.4675 31.7344 91.8542 31.9411 92.3075C32.1478 92.7608 32.2511 93.2642 32.2511 93.8175C32.2511 94.2708 32.1911 94.6775 32.0711 95.0375C31.9578 95.3908 31.7911 95.7042 31.5711 95.9775C31.3578 96.2442 31.0978 96.4708 30.7911 96.6575C30.4844 96.8442 30.1411 96.9942 29.7611 97.1075C30.6944 97.3542 31.3944 97.7675 31.8611 98.3475C32.3344 98.9275 32.5711 99.6542 32.5711 100.528C32.5711 101.188 32.4444 101.781 32.1911 102.308C31.9444 102.834 31.6044 103.284 31.1711 103.658C30.7378 104.024 30.2311 104.308 29.6511 104.508C29.0778 104.701 28.4611 104.798 27.8011 104.798C27.0411 104.798 26.3911 104.704 25.8511 104.518C25.3111 104.324 24.8544 104.061 24.4811 103.728C24.1078 103.394 23.8011 103.001 23.5611 102.548C23.3211 102.088 23.1178 101.591 22.9511 101.058L23.7111 100.738C23.8511 100.678 23.9911 100.648 24.1311 100.648C24.2644 100.648 24.3811 100.678 24.4811 100.738C24.5878 100.791 24.6678 100.878 24.7211 100.998C24.7344 101.024 24.7478 101.054 24.7611 101.088C24.7744 101.114 24.7878 101.144 24.8011 101.178C24.8944 101.371 25.0078 101.591 25.1411 101.838C25.2744 102.078 25.4544 102.304 25.6811 102.518C25.9078 102.731 26.1878 102.911 26.5211 103.058C26.8611 103.204 27.2811 103.278 27.7811 103.278C28.2811 103.278 28.7178 103.198 29.0911 103.038C29.4711 102.871 29.7844 102.658 30.0311 102.398C30.2844 102.138 30.4744 101.848 30.6011 101.528C30.7278 101.208 30.7911 100.891 30.7911 100.578C30.7911 100.191 30.7378 99.8375 30.6311 99.5175C30.5311 99.1975 30.3444 98.9208 30.0711 98.6875C29.8044 98.4542 29.4311 98.2708 28.9511 98.1375C28.4778 98.0042 27.8678 97.9375 27.1211 97.9375V96.6475C27.7278 96.6408 28.2444 96.5742 28.6711 96.4475C29.1044 96.3208 29.4578 96.1475 29.7311 95.9275C30.0044 95.7075 30.2011 95.4442 30.3211 95.1375C30.4478 94.8308 30.5111 94.4908 30.5111 94.1175C30.5111 93.7042 30.4444 93.3442 30.3111 93.0375C30.1844 92.7308 30.0078 92.4775 29.7811 92.2775C29.5544 92.0775 29.2844 91.9275 28.9711 91.8275C28.6644 91.7275 28.3311 91.6775 27.9711 91.6775C27.6111 91.6775 27.2778 91.7308 26.9711 91.8375C26.6644 91.9442 26.3911 92.0942 26.1511 92.2875C25.9178 92.4742 25.7211 92.7008 25.5611 92.9675C25.4011 93.2275 25.2811 93.5108 25.2011 93.8175C25.1478 94.0108 25.0678 94.1508 24.9611 94.2375C24.8544 94.3242 24.7178 94.3675 24.5511 94.3675C24.5178 94.3675 24.4811 94.3675 24.4411 94.3675C24.4078 94.3608 24.3678 94.3542 24.3211 94.3475L23.3911 94.1875C23.4844 93.5342 23.6644 92.9575 23.9311 92.4575C24.1978 91.9508 24.5344 91.5275 24.9411 91.1875C25.3544 90.8475 25.8244 90.5908 26.3511 90.4175C26.8844 90.2375 27.4578 90.1475 28.0711 90.1475ZM41.9727 95.8575C42.546 95.8575 43.0893 95.9542 43.6027 96.1475C44.116 96.3342 44.566 96.6108 44.9527 96.9775C45.3393 97.3375 45.646 97.7842 45.8727 98.3175C46.0993 98.8442 46.2127 99.4475 46.2127 100.128C46.2127 100.788 46.0927 101.401 45.8527 101.968C45.6127 102.534 45.276 103.028 44.8427 103.448C44.416 103.868 43.8993 104.198 43.2927 104.438C42.686 104.678 42.0193 104.798 41.2927 104.798C40.5727 104.798 39.9193 104.684 39.3327 104.458C38.7527 104.224 38.256 103.898 37.8427 103.478C37.4293 103.051 37.1093 102.538 36.8827 101.938C36.6627 101.331 36.5527 100.654 36.5527 99.9075C36.5527 99.2808 36.6927 98.6142 36.9727 97.9075C37.2527 97.2008 37.696 96.4408 38.3027 95.6275L41.9327 90.7375C42.026 90.6175 42.156 90.5175 42.3227 90.4375C42.4893 90.3508 42.6793 90.3075 42.8927 90.3075H44.4727L39.5027 96.5975C39.8427 96.3642 40.2193 96.1842 40.6327 96.0575C41.046 95.9242 41.4927 95.8575 41.9727 95.8575ZM38.2727 100.218C38.2727 100.678 38.3393 101.098 38.4727 101.478C38.606 101.858 38.7993 102.184 39.0527 102.458C39.3127 102.731 39.626 102.944 39.9927 103.098C40.366 103.244 40.7893 103.318 41.2627 103.318C41.7427 103.318 42.176 103.241 42.5627 103.088C42.9493 102.934 43.2793 102.721 43.5527 102.448C43.8327 102.174 44.046 101.851 44.1927 101.478C44.346 101.104 44.4227 100.698 44.4227 100.258C44.4227 99.7908 44.3493 99.3708 44.2027 98.9975C44.056 98.6175 43.8493 98.2975 43.5827 98.0375C43.316 97.7708 42.996 97.5675 42.6227 97.4275C42.2493 97.2875 41.8393 97.2175 41.3927 97.2175C40.9127 97.2175 40.4793 97.3008 40.0927 97.4675C39.706 97.6275 39.376 97.8475 39.1027 98.1275C38.836 98.4008 38.6293 98.7208 38.4827 99.0875C38.3427 99.4475 38.2727 99.8242 38.2727 100.218ZM60.0742 97.4775C60.0742 98.7308 59.9376 99.8175 59.6642 100.738C59.3976 101.651 59.0309 102.408 58.5642 103.008C58.0976 103.608 57.5442 104.054 56.9042 104.348C56.2709 104.641 55.5909 104.788 54.8642 104.788C54.1309 104.788 53.4476 104.641 52.8142 104.348C52.1876 104.054 51.6409 103.608 51.1742 103.008C50.7076 102.408 50.3409 101.651 50.0742 100.738C49.8076 99.8175 49.6742 98.7308 49.6742 97.4775C49.6742 96.2242 49.8076 95.1375 50.0742 94.2175C50.3409 93.2975 50.7076 92.5375 51.1742 91.9375C51.6409 91.3308 52.1876 90.8808 52.8142 90.5875C53.4476 90.2942 54.1309 90.1475 54.8642 90.1475C55.5909 90.1475 56.2709 90.2942 56.9042 90.5875C57.5442 90.8808 58.0976 91.3308 58.5642 91.9375C59.0309 92.5375 59.3976 93.2975 59.6642 94.2175C59.9376 95.1375 60.0742 96.2242 60.0742 97.4775ZM58.2242 97.4775C58.2242 96.3842 58.1309 95.4675 57.9442 94.7275C57.7642 93.9808 57.5176 93.3808 57.2042 92.9275C56.8976 92.4742 56.5409 92.1508 56.1342 91.9575C55.7276 91.7575 55.3042 91.6575 54.8642 91.6575C54.4242 91.6575 54.0009 91.7575 53.5942 91.9575C53.1876 92.1508 52.8309 92.4742 52.5242 92.9275C52.2176 93.3808 51.9709 93.9808 51.7842 94.7275C51.6042 95.4675 51.5142 96.3842 51.5142 97.4775C51.5142 98.5708 51.6042 99.4875 51.7842 100.228C51.9709 100.968 52.2176 101.564 52.5242 102.018C52.8309 102.471 53.1876 102.798 53.5942 102.998C54.0009 103.191 54.4242 103.288 54.8642 103.288C55.3042 103.288 55.7276 103.191 56.1342 102.998C56.5409 102.798 56.8976 102.471 57.2042 102.018C57.5176 101.564 57.7642 100.968 57.9442 100.228C58.1309 99.4875 58.2242 98.5708 58.2242 97.4775ZM66.4958 90.1475C66.9624 90.1475 67.3824 90.2208 67.7558 90.3675C68.1358 90.5075 68.4591 90.7108 68.7258 90.9775C68.9924 91.2442 69.1991 91.5708 69.3458 91.9575C69.4924 92.3375 69.5658 92.7642 69.5658 93.2375C69.5658 93.7175 69.4924 94.1508 69.3458 94.5375C69.1991 94.9242 68.9924 95.2542 68.7258 95.5275C68.4591 95.7942 68.1358 96.0008 67.7558 96.1475C67.3824 96.2875 66.9624 96.3575 66.4958 96.3575C66.0224 96.3575 65.5958 96.2875 65.2158 96.1475C64.8358 96.0008 64.5091 95.7942 64.2358 95.5275C63.9691 95.2542 63.7624 94.9242 63.6158 94.5375C63.4691 94.1508 63.3958 93.7175 63.3958 93.2375C63.3958 92.7642 63.4691 92.3375 63.6158 91.9575C63.7624 91.5708 63.9691 91.2442 64.2358 90.9775C64.5091 90.7108 64.8358 90.5075 65.2158 90.3675C65.5958 90.2208 66.0224 90.1475 66.4958 90.1475ZM66.4958 95.2975C67.0558 95.2975 67.4724 95.1242 67.7458 94.7775C68.0258 94.4242 68.1658 93.9142 68.1658 93.2475C68.1658 92.5808 68.0258 92.0742 67.7458 91.7275C67.4724 91.3808 67.0558 91.2075 66.4958 91.2075C65.9158 91.2075 65.4858 91.3808 65.2058 91.7275C64.9324 92.0742 64.7958 92.5808 64.7958 93.2475C64.7958 93.9142 64.9324 94.4242 65.2058 94.7775C65.4858 95.1242 65.9158 95.2975 66.4958 95.2975ZM78.2402 90.3075H79.7902C79.9635 90.3075 80.1035 90.3508 80.2102 90.4375C80.3168 90.5242 80.3968 90.6342 80.4502 90.7675L84.5002 100.878C84.5935 101.104 84.6768 101.351 84.7502 101.618C84.8302 101.884 84.9068 102.161 84.9802 102.448C85.0402 102.161 85.1035 101.884 85.1702 101.618C85.2435 101.351 85.3268 101.104 85.4202 100.878L89.4502 90.7675C89.4968 90.6542 89.5768 90.5508 89.6902 90.4575C89.8035 90.3575 89.9435 90.3075 90.1102 90.3075H91.6702L85.8302 104.638H84.0802L78.2402 90.3075ZM97.7939 104.638H95.8539V90.3075H97.7939V104.638ZM116.047 97.4775C116.047 98.5508 115.877 99.5275 115.537 100.408C115.197 101.288 114.717 102.041 114.097 102.668C113.477 103.294 112.733 103.781 111.867 104.128C111 104.468 110.04 104.638 108.987 104.638H103.627V90.3075H108.987C110.04 90.3075 111 90.4808 111.867 90.8275C112.733 91.1675 113.477 91.6542 114.097 92.2875C114.717 92.9142 115.197 93.6675 115.537 94.5475C115.877 95.4275 116.047 96.4042 116.047 97.4775ZM114.057 97.4775C114.057 96.5975 113.937 95.8108 113.697 95.1175C113.457 94.4242 113.117 93.8375 112.677 93.3575C112.237 92.8775 111.703 92.5108 111.077 92.2575C110.45 92.0042 109.753 91.8775 108.987 91.8775H105.577V103.068H108.987C109.753 103.068 110.45 102.941 111.077 102.688C111.703 102.434 112.237 102.071 112.677 101.598C113.117 101.118 113.457 100.531 113.697 99.8375C113.937 99.1442 114.057 98.3575 114.057 97.4775ZM129.515 90.3075V91.8875H122.635V96.6475H128.205V98.1675H122.635V103.058H129.515V104.638H120.685V90.3075H129.515ZM147.616 97.4775C147.616 98.5508 147.446 99.5375 147.106 100.438C146.766 101.331 146.286 102.101 145.666 102.748C145.046 103.394 144.3 103.898 143.426 104.258C142.56 104.611 141.6 104.788 140.546 104.788C139.493 104.788 138.533 104.611 137.666 104.258C136.8 103.898 136.056 103.394 135.436 102.748C134.816 102.101 134.336 101.331 133.996 100.438C133.656 99.5375 133.486 98.5508 133.486 97.4775C133.486 96.4042 133.656 95.4208 133.996 94.5275C134.336 93.6275 134.816 92.8542 135.436 92.2075C136.056 91.5542 136.8 91.0475 137.666 90.6875C138.533 90.3275 139.493 90.1475 140.546 90.1475C141.6 90.1475 142.56 90.3275 143.426 90.6875C144.3 91.0475 145.046 91.5542 145.666 92.2075C146.286 92.8542 146.766 93.6275 147.106 94.5275C147.446 95.4208 147.616 96.4042 147.616 97.4775ZM145.626 97.4775C145.626 96.5975 145.506 95.8075 145.266 95.1075C145.026 94.4075 144.686 93.8175 144.246 93.3375C143.806 92.8508 143.273 92.4775 142.646 92.2175C142.02 91.9575 141.32 91.8275 140.546 91.8275C139.78 91.8275 139.083 91.9575 138.456 92.2175C137.83 92.4775 137.293 92.8508 136.846 93.3375C136.406 93.8175 136.066 94.4075 135.826 95.1075C135.586 95.8075 135.466 96.5975 135.466 97.4775C135.466 98.3575 135.586 99.1475 135.826 99.8475C136.066 100.541 136.406 101.131 136.846 101.618C137.293 102.098 137.83 102.468 138.456 102.728C139.083 102.981 139.78 103.108 140.546 103.108C141.32 103.108 142.02 102.981 142.646 102.728C143.273 102.468 143.806 102.098 144.246 101.618C144.686 101.131 145.026 100.541 145.266 99.8475C145.506 99.1475 145.626 98.3575 145.626 97.4775ZM159.603 92.5475C159.543 92.6475 159.48 92.7242 159.413 92.7775C159.347 92.8242 159.26 92.8475 159.153 92.8475C159.04 92.8475 158.907 92.7908 158.753 92.6775C158.607 92.5642 158.417 92.4408 158.183 92.3075C157.957 92.1675 157.68 92.0408 157.353 91.9275C157.033 91.8142 156.643 91.7575 156.183 91.7575C155.75 91.7575 155.367 91.8175 155.033 91.9375C154.7 92.0508 154.42 92.2075 154.193 92.4075C153.973 92.6075 153.807 92.8442 153.693 93.1175C153.58 93.3842 153.523 93.6742 153.523 93.9875C153.523 94.3875 153.62 94.7208 153.813 94.9875C154.013 95.2475 154.273 95.4708 154.593 95.6575C154.92 95.8442 155.287 96.0075 155.693 96.1475C156.107 96.2808 156.527 96.4208 156.953 96.5675C157.387 96.7142 157.807 96.8808 158.213 97.0675C158.627 97.2475 158.993 97.4775 159.313 97.7575C159.64 98.0375 159.9 98.3808 160.093 98.7875C160.293 99.1942 160.393 99.6942 160.393 100.288C160.393 100.914 160.287 101.504 160.073 102.058C159.86 102.604 159.547 103.081 159.133 103.488C158.727 103.894 158.223 104.214 157.623 104.448C157.03 104.681 156.353 104.798 155.593 104.798C154.667 104.798 153.82 104.631 153.053 104.298C152.293 103.958 151.643 103.501 151.103 102.928L151.663 102.008C151.717 101.934 151.78 101.874 151.853 101.828C151.933 101.774 152.02 101.748 152.113 101.748C152.253 101.748 152.413 101.824 152.593 101.978C152.773 102.124 152.997 102.288 153.263 102.468C153.537 102.648 153.863 102.814 154.243 102.968C154.63 103.114 155.1 103.188 155.653 103.188C156.113 103.188 156.523 103.124 156.883 102.998C157.243 102.871 157.547 102.694 157.793 102.468C158.047 102.234 158.24 101.958 158.373 101.638C158.507 101.318 158.573 100.961 158.573 100.568C158.573 100.134 158.473 99.7808 158.273 99.5075C158.08 99.2275 157.823 98.9942 157.503 98.8075C157.183 98.6208 156.817 98.4642 156.403 98.3375C155.997 98.2042 155.577 98.0708 155.143 97.9375C154.717 97.7975 154.297 97.6375 153.883 97.4575C153.477 97.2775 153.113 97.0442 152.793 96.7575C152.473 96.4708 152.213 96.1142 152.013 95.6875C151.82 95.2542 151.723 94.7208 151.723 94.0875C151.723 93.5808 151.82 93.0908 152.013 92.6175C152.213 92.1442 152.5 91.7242 152.873 91.3575C153.247 90.9908 153.707 90.6975 154.253 90.4775C154.807 90.2575 155.44 90.1475 156.153 90.1475C156.953 90.1475 157.683 90.2742 158.343 90.5275C159.003 90.7808 159.58 91.1475 160.073 91.6275L159.603 92.5475Z" fill="white"/>
<path d="M91.5 51.85L94.55 45.75V30.0669C99.7991 28.7036 103.7 23.9669 103.7 18.3C103.7 11.5717 98.2283 6.10001 91.5 6.10001C84.7717 6.10001 79.3 11.5717 79.3 18.3C79.3 23.9669 83.201 28.7036 88.45 30.0669V45.75L91.5 51.85ZM85.4 18.3C85.4 14.9359 88.1359 12.2 91.5 12.2C94.8642 12.2 97.6 14.9359 97.6 18.3C97.6 21.6642 94.8642 24.4 91.5 24.4C88.1359 24.4 85.4 21.6642 85.4 18.3Z" fill="#D8D7CE"/>
<path d="M106.429 32.7954C105.38 32.4505 104.276 33.0801 103.982 34.1446L103.422 36.1697C103.127 37.2344 103.756 38.3302 104.802 38.6836C111.606 40.9813 115.9 44.8407 115.9 48.8C115.9 54.5706 105.881 61 91.5 61C77.1192 61 67.1 54.5706 67.1 48.8C67.1 44.8404 71.3943 40.9808 78.2012 38.6808C79.2476 38.3273 79.8758 37.2316 79.5815 36.1671L79.0216 34.1419C78.7273 33.0772 77.6231 32.4476 76.5737 32.7928C66.9136 35.97 61 41.9893 61 48.8C61 59.0602 74.3986 67.1 91.5 67.1C108.601 67.1 122 59.0602 122 48.8C122 41.9894 116.087 35.9701 106.429 32.7954Z" fill="#D8D7CE"/>
</svg>
